<?xml version="1.0" encoding="UTF-8" standalone="no"?>
<svg
   height="24"
   viewBox="0 -960 960 960"
   width="24"
   version="1.1"
   id="svg4"
   xmlns="http://www.w3.org/2000/svg"
   xmlns:svg="http://www.w3.org/2000/svg">
  <defs
     id="defs8" />
  <path
     d="m 240,-80 c -22,0 -40.83333,-7.833333 -56.5,-23.5 C 167.83333,-119.16667 160,-138 160,-160 v -640 c 0,-22 7.83333,-40.83333 23.5,-56.5 15.66667,-15.66667 34.5,-23.5 56.5,-23.5 h 320 l 240,240 v 120 h -80 v -80 H 520 V -800 H 240 v 640 h 240 v 80 z"
     id="path2" />
  <path
     d="m 435.64166,-263.34694 217.61405,-217.61405 -55.84786,-55.84786 -162.72908,162.72909 -80.8831,-80.8831 -54.88496,54.88497 z"
     id="path1333"
     style="stroke-width:0.962894" />
  <path
     d="m 866.14916,-324.71275 v 200.58423 H 699.21264 V -324.71275 H 866.14916 M 834.84856,-445.0633 H 730.51325 l -20.86708,20.05844 h -73.03473 v 40.11684 h 292.13895 v -40.11684 h -73.03478 z m 73.03473,80.2337 H 657.47851 v 240.70108 c 0,22.06426 18.78034,40.116825 41.73413,40.116825 h 166.93652 c 22.95377,0 41.73413,-18.052565 41.73413,-40.116825 z"
     id="path1416"
     style="stroke-width:20.4588" />
</svg>
