<?xml version="1.0" encoding="UTF-8" standalone="no"?>
<svg
   viewBox="0 0 24 24"
   width="24"
   height="24"
   version="1.1"
   id="svg1057"
   xmlns="http://www.w3.org/2000/svg"
   xmlns:svg="http://www.w3.org/2000/svg">
  <path
     fill="none"
     d="M0 0h24v24H0z"
     id="path1053" />
  <path
     d="m 12.555988,8.023369 v 8 a 3,3 0 0 1 -2.9999997,3 h -2.17 a 3.001,3.001 0 1 1 0,-2 h 2.17 a 1,1 0 0 0 0.9999997,-1 v -8 a 3,3 0 0 1 3,-3 h 3 v -3 l 5,4 -5,4 v -3 h -3 a 1,1 0 0 0 -1,1 z m -7.9999997,11 a 1,1 0 1 0 0,-2 1,1 0 0 0 0,2 z"
     fill="rgba(0,43,60,1)"
     id="path1055" />
  <path
     d="m 20.695368,14.664395 v 5.299979 h -4.564196 v -5.299979 h 4.564196 M 19.839581,11.484407 H 16.98696 l -0.570525,0.529999 h -1.996836 v 1.059995 h 7.987343 v -1.059995 h -1.996836 z m 1.996836,2.119992 h -6.846294 v 6.359974 c 0,0.582997 0.513472,1.059996 1.141049,1.059996 h 4.564196 c 0.627577,0 1.141049,-0.476998 1.141049,-1.059996 z"
     id="path1416"
     style="stroke-width:0.549889" />
</svg>
