<svg version="1.1" xmlns="http://www.w3.org/2000/svg" viewBox="0 0 650.0805053710938 243.47332763671875" width="1300.1610107421875" height="486.9466552734375">
  <!-- svg-source:excalidraw -->
  
  <defs>
    <style class="style-fonts">
      @font-face {
        font-family: "Virgil";
        src: url("https://excalidraw.com/Virgil.woff2");
      }
      @font-face {
        font-family: "Cascadia";
        src: url("https://excalidraw.com/Cascadia.woff2");
      }
      @font-face {
        font-family: "Assistant";
        src: url("https://excalidraw.com/Assistant-Regular.woff2");
      }
    </style>
    
  </defs>
  <rect x="0" y="0" width="650.0805053710938" height="243.47332763671875" fill="#ffffff"></rect><g stroke-linecap="round" transform="translate(10 10) rotate(0 315.0402526855469 111.73666381835938)"><path d="M32 0 C253.94 -1.45, 476.31 -1.98, 598.08 0 M32 0 C195.92 0.9, 360.07 1.52, 598.08 0 M598.08 0 C619.93 -1.58, 631.72 12.42, 630.08 32 M598.08 0 C619.88 -1.42, 628.53 9.56, 630.08 32 M630.08 32 C627.73 67.06, 629.28 100.07, 630.08 191.47 M630.08 32 C630.9 86.63, 631.41 142.56, 630.08 191.47 M630.08 191.47 C629.85 212.88, 618.63 223.56, 598.08 223.47 M630.08 191.47 C631.42 211.26, 617.5 222.63, 598.08 223.47 M598.08 223.47 C456.37 224.25, 314.28 224.4, 32 223.47 M598.08 223.47 C410.87 222.2, 223.03 222.07, 32 223.47 M32 223.47 C9.61 223.25, -1.81 213.47, 0 191.47 M32 223.47 C8.66 221.67, -0.13 212.1, 0 191.47 M0 191.47 C0.41 151.86, -0.83 115.75, 0 32 M0 191.47 C-0.73 133.55, -0.93 77.39, 0 32 M0 32 C0.47 11.56, 9.65 -0.85, 32 0 M0 32 C-1.75 10.35, 11.63 0.68, 32 0" stroke="#1e1e1e" stroke-width="2" fill="none"></path></g><g transform="translate(70.264404296875 78.44393920898438) rotate(0 257.52978515625 25)"><text x="0" y="0" font-family="Virgil, Segoe UI Emoji" font-size="20px" fill="#1e1e1e" text-anchor="start" style="white-space: pre;" direction="ltr" dominant-baseline="text-before-edge">Do you really want to delete the selected element?</text><text x="0" y="25" font-family="Virgil, Segoe UI Emoji" font-size="20px" fill="#1e1e1e" text-anchor="start" style="white-space: pre;" direction="ltr" dominant-baseline="text-before-edge">This process cannot be undone.</text></g><g stroke-linecap="round" transform="translate(342.2930908203125 176.93267822265625) rotate(0 63.16973876953125 21.41888427734375)"><path d="M10.71 0 C39.17 -0.25, 66.26 -1.79, 115.63 0 M10.71 0 C47.02 -0.04, 85.17 -1.4, 115.63 0 M115.63 0 C123.38 -0.08, 126.26 4.59, 126.34 10.71 M115.63 0 C121.04 -1.59, 124.83 5.85, 126.34 10.71 M126.34 10.71 C126.92 19.78, 124.87 24.68, 126.34 32.13 M126.34 10.71 C127.06 17.2, 126.42 23.77, 126.34 32.13 M126.34 32.13 C128.06 38.91, 123.35 44.76, 115.63 42.84 M126.34 32.13 C126.14 39.51, 122.45 40.57, 115.63 42.84 M115.63 42.84 C77.63 40.62, 35.78 41.45, 10.71 42.84 M115.63 42.84 C89.5 43.6, 65.05 42.93, 10.71 42.84 M10.71 42.84 C1.75 43.93, -0.49 40.02, 0 32.13 M10.71 42.84 C3.37 41.11, -2.08 40.73, 0 32.13 M0 32.13 C0.87 24.33, 1.47 17.95, 0 10.71 M0 32.13 C-0.2 27.21, 0.17 22.41, 0 10.71 M0 10.71 C-0.42 2.02, 2.22 -1.95, 10.71 0 M0 10.71 C-1.85 4.47, 5.33 -2.17, 10.71 0" stroke="#1e1e1e" stroke-width="2" fill="none"></path></g><g transform="translate(375.41119384765625 184.887939453125) rotate(0 32.489967346191406 12.5)"><text x="0" y="0" font-family="Virgil, Segoe UI Emoji" font-size="20px" fill="#1e1e1e" text-anchor="start" style="white-space: pre;" direction="ltr" dominant-baseline="text-before-edge">Delete</text></g><g stroke-linecap="round" transform="translate(480.084228515625 175.620849609375) rotate(0 63.16973876953125 21.41888427734375)"><path d="M10.71 0 C50.79 -1.04, 88.04 0.42, 115.63 0 M10.71 0 C51.07 0.82, 91.78 0.33, 115.63 0 M115.63 0 C124.19 -1.31, 125.32 4.88, 126.34 10.71 M115.63 0 C122.1 -0.61, 125.81 5.59, 126.34 10.71 M126.34 10.71 C124.95 19.3, 127.94 28.88, 126.34 32.13 M126.34 10.71 C126.62 17.17, 125.84 22.17, 126.34 32.13 M126.34 32.13 C125.13 38.7, 120.82 41.87, 115.63 42.84 M126.34 32.13 C124.89 38.15, 123.92 44.13, 115.63 42.84 M115.63 42.84 C82.65 44.01, 47.65 43.78, 10.71 42.84 M115.63 42.84 C89.03 41.64, 62.13 41.81, 10.71 42.84 M10.71 42.84 C4.04 41.5, -1.3 40.24, 0 32.13 M10.71 42.84 C3.9 41.3, 1.42 38.05, 0 32.13 M0 32.13 C0.53 24.09, -1.24 17.23, 0 10.71 M0 32.13 C0.65 25.86, -0.2 21.79, 0 10.71 M0 10.71 C-1.97 3.34, 1.96 -0.19, 10.71 0 M0 10.71 C-0.5 2.58, 3.58 1.05, 10.71 0" stroke="#1e1e1e" stroke-width="2" fill="none"></path></g><g transform="translate(513.2023315429688 183.57611083984375) rotate(0 30.899978637695312 12.5)"><text x="0" y="0" font-family="Virgil, Segoe UI Emoji" font-size="20px" fill="#1e1e1e" text-anchor="start" style="white-space: pre;" direction="ltr" dominant-baseline="text-before-edge">Cancel</text></g><g stroke-linecap="round" transform="translate(39.30548095703125 191.9395751953125) rotate(0 9.7489013671875 9.252471923828125)"><path d="M4.63 0 C7.24 -0.12, 12.62 0.82, 14.87 0 M4.63 0 C7.16 0.02, 10.12 -0.31, 14.87 0 M14.87 0 C16.99 0.33, 17.7 2.54, 19.5 4.63 M14.87 0 C15.95 0.07, 19.92 0.75, 19.5 4.63 M19.5 4.63 C19.64 6.96, 18.52 9.91, 19.5 13.88 M19.5 4.63 C19.28 7.3, 19.21 9.25, 19.5 13.88 M19.5 13.88 C19.6 16.39, 19.41 18.79, 14.87 18.5 M19.5 13.88 C20.07 15.53, 19.6 17.02, 14.87 18.5 M14.87 18.5 C11.19 18.78, 8.32 17.73, 4.63 18.5 M14.87 18.5 C11.39 18.59, 7.89 18.45, 4.63 18.5 M4.63 18.5 C2.85 19.05, -1.53 18.39, 0 13.88 M4.63 18.5 C1.04 19.38, -2.03 18.15, 0 13.88 M0 13.88 C0.09 11.48, -0.44 10.2, 0 4.63 M0 13.88 C-0.03 11.98, -0.3 9.6, 0 4.63 M0 4.63 C1.09 0.66, 0.97 -1.52, 4.63 0 M0 4.63 C-2.11 0.29, 2.51 0.13, 4.63 0" stroke="#1e1e1e" stroke-width="2" fill="none"></path></g><g transform="translate(67.88018798828125 192.3709716796875) rotate(0 76.2399673461914 10)"><text x="0" y="0" font-family="Virgil, Segoe UI Emoji" font-size="16px" fill="#1e1e1e" text-anchor="start" style="white-space: pre;" direction="ltr" dominant-baseline="text-before-edge">Don't ask me again</text></g><g stroke-linecap="round"><g transform="translate(43.57808958871624 201.57125459278637) rotate(0 1.804443359375 2.35223388671875)"><path d="M-0.31 -0.25 C0.3 0.64, 2.64 4.26, 3.28 5.04 M0.18 0.39 C0.92 1.21, 3.39 3.87, 3.91 4.59" stroke="#1e1e1e" stroke-width="1" fill="none"></path></g></g><mask></mask><g stroke-linecap="round"><g transform="translate(47.36460075175614 205.99045749733585) rotate(0 3.0199274373393905 -5.036629922899863)"><path d="M0.01 0.3 C1.03 -1.42, 4.69 -8.48, 5.73 -10.16 M-0.65 -0.02 C0.59 -1.66, 5.69 -7.73, 6.8 -9.5" stroke="#1e1e1e" stroke-width="1" fill="none"></path></g></g><mask></mask></svg>