<svg id="Layer_1" data-name="Layer 1" xmlns="http://www.w3.org/2000/svg" viewBox="0 0 92.7 92.7">
  <title>icon</title>
  <g>
    <g>
      <rect x="16.1" y="16.1" width="60.5" height="60.47" rx="3" style="fill: #b2bab9;stroke: #002b3c;stroke-linecap: round;stroke-linejoin: round;stroke-width: 2px"/>
      <path d="M46.4,16.1V1M31.2,16.1V1M61.5,16.1V1M31.2,91.7V76.6M61.5,91.7V76.6M46.4,91.7V76.6M76.6,46.4H91.7M76.6,31.2H91.7M76.6,61.5H91.7M1,31.2H16.1M1,61.5H16.1M1,46.4H16.1" style="fill: none;stroke: #002b3c;stroke-linecap: round;stroke-linejoin: round;stroke-width: 2px"/>
      <rect x="28.2" y="28.2" width="36.3" height="36.28" rx="3" style="fill: #fff;stroke: #002b3c;stroke-linecap: round;stroke-linejoin: round;stroke-width: 2px"/>
    </g>
    <path d="M28.2,48.8H36c.1,0,.2-.2.3-.3l2.5-6.7c.1-.4.4-.4.5-.1h.1l3,9.1c.1.3.3.4.5.2s.1-.2.1-.3l4.4-16.2c.1-.4.4-.5.5-.3a.5.5,0,0,1,.2.4L52.6,58c.1.4.3.6.5.5s.1-.2.1-.4l2.5-10.5c.1-.2.2-.4.3-.4h8.5" style="fill: none;stroke: #002b3c;stroke-linecap: round;stroke-linejoin: round;stroke-width: 2px"/>
  </g>
</svg>
