<?xml version="1.0" encoding="UTF-8" standalone="no"?>
<svg
   viewBox="0 0 24 24"
   width="16"
   height="16"
   version="1.1"
   id="svg6"
   sodipodi:docname="DropTool.svg"
   inkscape:version="1.1.1 (3bf5ae0d25, 2021-09-20)"
   xmlns:inkscape="http://www.inkscape.org/namespaces/inkscape"
   xmlns:sodipodi="http://sodipodi.sourceforge.net/DTD/sodipodi-0.dtd"
   xmlns="http://www.w3.org/2000/svg"
   xmlns:svg="http://www.w3.org/2000/svg"
   xmlns:rdf="http://www.w3.org/1999/02/22-rdf-syntax-ns#"
   xmlns:cc="http://creativecommons.org/ns#"
   xmlns:dc="http://purl.org/dc/elements/1.1/">
  <metadata
     id="metadata12">
    <rdf:RDF>
      <cc:Work
         rdf:about="">
        <dc:format>image/svg+xml</dc:format>
        <dc:type
           rdf:resource="http://purl.org/dc/dcmitype/StillImage" />
        <dc:title />
      </cc:Work>
    </rdf:RDF>
  </metadata>
  <defs
     id="defs10" />
  <sodipodi:namedview
     pagecolor="#ffffff"
     bordercolor="#666666"
     borderopacity="1"
     objecttolerance="10"
     gridtolerance="10"
     guidetolerance="10"
     inkscape:pageopacity="0"
     inkscape:pageshadow="2"
     inkscape:window-width="2061"
     inkscape:window-height="1404"
     id="namedview8"
     showgrid="false"
     inkscape:zoom="8.0156249"
     inkscape:cx="-35.805068"
     inkscape:cy="-17.341131"
     inkscape:window-x="921"
     inkscape:window-y="255"
     inkscape:window-maximized="0"
     inkscape:current-layer="g3707"
     inkscape:pagecheckerboard="0" />
  <path
     fill="none"
     d="M0 0h24v24H0z"
     id="path2" />
  <path
     d="M21 3a1 1 0 0 1 1 1v16a1 1 0 0 1-1 1H3a1 1 0 0 1-1-1V4a1 1 0 0 1 1-1h18zm-1 2H4v14h16V5zm-2 2v2H6V7h12z"
     fill="rgba(0,43,60,1)"
     id="path4" />
  <g
     id="g3707"
     transform="matrix(-1.102576,0,0,1.102576,24.630748,-9.3169778)"
     style="fill:#000000">
    <path
       d="m 16.688203,11.345149 c 1.12185,-0.676426 3.316343,-1.037503 4.53895,-1.120761 -2.509961,-1.2190559 -4.488069,-0.506122 -7.048628,1.03778 -2.158064,1.301216 -3.289094,4.520263 -3.72658,6.815869 l -2.2100053,-0.47732 2.1156893,5.022776 4.828819,-3.277292 -2.371859,-0.637175 c 0.23825,-2.432373 1.612786,-6.000699 3.873614,-7.363877 z"
       id="path3705"
       style="fill:#515151;fill-opacity:1"
       sodipodi:nodetypes="scscccccs" />
  </g>
</svg>
