<?xml version="1.0" encoding="UTF-8" standalone="no"?>
<svg
   xmlns:dc="http://purl.org/dc/elements/1.1/"
   xmlns:cc="http://creativecommons.org/ns#"
   xmlns:rdf="http://www.w3.org/1999/02/22-rdf-syntax-ns#"
   xmlns:svg="http://www.w3.org/2000/svg"
   xmlns="http://www.w3.org/2000/svg"
   xmlns:sodipodi="http://sodipodi.sourceforge.net/DTD/sodipodi-0.dtd"
   xmlns:inkscape="http://www.inkscape.org/namespaces/inkscape"
   viewBox="0 0 24 24"
   width="16"
   height="16"
   version="1.1"
   id="svg6"
   sodipodi:docname="NodeTool.svg"
   inkscape:version="1.0.2 (e86c870879, 2021-01-15)">
  <metadata
     id="metadata12">
    <rdf:RDF>
      <cc:Work
         rdf:about="">
        <dc:format>image/svg+xml</dc:format>
        <dc:type
           rdf:resource="http://purl.org/dc/dcmitype/StillImage" />
        <dc:title></dc:title>
      </cc:Work>
    </rdf:RDF>
  </metadata>
  <defs
     id="defs10" />
  <sodipodi:namedview
     pagecolor="#ffffff"
     bordercolor="#666666"
     borderopacity="1"
     objecttolerance="10"
     gridtolerance="10"
     guidetolerance="10"
     inkscape:pageopacity="0"
     inkscape:pageshadow="2"
     inkscape:window-width="2061"
     inkscape:window-height="1404"
     id="namedview8"
     showgrid="false"
     inkscape:zoom="45.343222"
     inkscape:cx="3.7319857"
     inkscape:cy="5.2381534"
     inkscape:window-x="479"
     inkscape:window-y="568"
     inkscape:window-maximized="0"
     inkscape:current-layer="svg6" />
  <path
     fill="none"
     d="M0 0h24v24H0z"
     id="path2" />
  <path
     d="M21 3a1 1 0 0 1 1 1v16a1 1 0 0 1-1 1H3a1 1 0 0 1-1-1V4a1 1 0 0 1 1-1h18zm-1 2H4v14h16V5zm-2 2v2H6V7h12z"
     fill="rgba(0,43,60,1)"
     id="path4" />
  <path
     d="M 11.562667,9.735645 6.980687,5.1536659 C 7.4499867,3.972848 7.2077676,2.580087 6.2540295,1.6213031 5.0933958,0.46066858 3.2868443,0.35469862 2.0000548,1.2932975 L 3.9378084,3.2360966 3.2212432,3.9476167 1.2885358,2.0149085 C 0.34993649,3.2966517 0.45590739,5.1082496 1.6165409,6.2638378 2.5551404,7.2024366 3.9226696,7.449702 5.0933958,7.0106801 l 4.5971188,4.5971179 c 0.196803,0.196803 0.5147164,0.196803 0.7115194,0 l 1.160633,-1.160634 c 0.20185,-0.191756 0.20185,-0.50967 0,-0.711519 z M 10.048797,10.543043 5.2750602,5.769307 C 4.96724,5.9963873 4.6240961,6.1326349 4.2658136,6.1830975 3.5795257,6.2840228 2.8579145,6.0771276 2.3331062,5.5523177 1.8537139,5.077972 1.6316797,4.4421474 1.6670034,3.8164138 L 3.2262894,5.3757 5.3658924,3.2360966 3.8066064,1.6768104 c 0.6257328,-0.035329 1.256512,0.1867118 1.7359043,0.6610575 0.544993,0.5449933 0.7518886,1.296882 0.6257328,1.998308 -0.060555,0.3582832 -0.2119418,0.6913334 -0.4440686,0.9890614 l 4.7686911,4.7686917 z"
     id="path4-3"
     style="fill:#515151;fill-opacity:1;stroke-width:0.504623" />
</svg>
