<svg id="Layer_1" data-name="Layer 1" xmlns="http://www.w3.org/2000/svg" viewBox="0 0 92.7 69.3">
  <title>icon</title>
  <g>
    <path d="M46.4,56.8a9.2,9.2,0,0,0-6.8,3,1.4,1.4,0,0,0,0,2.1l5.6,5.7a1.7,1.7,0,0,0,2.1,0l5.5-5.7a1.4,1.4,0,0,0,0-2.1A9,9,0,0,0,46.4,56.8Z" style="fill: #48c1c2;stroke: #002b3c;stroke-linecap: round;stroke-linejoin: round;stroke-width: 1.99460327625275px"/>
    <path d="M26,46.4l6,6.8a21.9,21.9,0,0,1,28.8,0l6-6.8a30.9,30.9,0,0,0-40.7,0Z" style="fill: #fff;stroke: #002b3c;stroke-linecap: round;stroke-linejoin: round;stroke-width: 2px"/>
    <path d="M13.7,32.2l6,6.7a40.9,40.9,0,0,1,53.7,0l6-6.7a49.9,49.9,0,0,0-65.6,0Z" style="fill: #fff;stroke: #002b3c;stroke-linecap: round;stroke-linejoin: round;stroke-width: 1.99460327625275px"/>
    <path d="M46.4,1.3a67.5,67.5,0,0,0-45,16.8l6,6.7a59.4,59.4,0,0,1,78.1,0l5.9-6.7A67.9,67.9,0,0,0,46.4,1.3Z" style="fill: #fff;stroke: #002b3c;stroke-linecap: round;stroke-linejoin: round;stroke-width: 2px"/>
  </g>
</svg>
