<svg version="1.1" xmlns="http://www.w3.org/2000/svg" viewBox="0 0 389.7518310546875 504.5807868700791" width="779.503662109375" height="1009.1615737401582">
  <!-- svg-source:excalidraw -->
  
  <defs>
    <style class="style-fonts">
      @font-face {
        font-family: "Virgil";
        src: url("https://excalidraw.com/Virgil.woff2");
      }
      @font-face {
        font-family: "Cascadia";
        src: url("https://excalidraw.com/Cascadia.woff2");
      }
      @font-face {
        font-family: "Assistant";
        src: url("https://excalidraw.com/Assistant-Regular.woff2");
      }
    </style>
    
  </defs>
  <rect x="0" y="0" width="389.7518310546875" height="504.5807868700791" fill="#ffffff"></rect><g stroke-linecap="round" transform="translate(10.01409912109375 10) rotate(0 184.86886596679688 242.29039343503956)"><path d="M0 0 C128.27 0.94, 256.31 2.25, 369.74 0 M0 0 C108.09 -0.42, 215.56 -0.21, 369.74 0 M369.74 0 C370.75 152.38, 371.03 305.08, 369.74 484.58 M369.74 0 C367.57 181.74, 367.62 362.65, 369.74 484.58 M369.74 484.58 C274.52 482.4, 180.14 483.68, 0 484.58 M369.74 484.58 C285.57 483.77, 200.32 484.19, 0 484.58 M0 484.58 C-0.53 308.28, -1.01 132.68, 0 0 M0 484.58 C-1.05 324.45, -1.16 163.95, 0 0" stroke="#1e1e1e" stroke-width="2" fill="none"></path></g><g stroke-linecap="round" transform="translate(10.24224853515625 10.3472900390625) rotate(0 184.242431640625 27.853118896484375)"><path d="M0 0 C93.42 1.09, 185.58 0.7, 368.48 0 M0 0 C136.19 0.57, 271.78 0.64, 368.48 0 M368.48 0 C370.02 15, 367.5 31.83, 368.48 55.71 M368.48 0 C368.05 18.15, 368.95 35.01, 368.48 55.71 M368.48 55.71 C282.78 55.82, 197.47 55.72, 0 55.71 M368.48 55.71 C254.66 55.73, 140.63 55.97, 0 55.71 M0 55.71 C-1.16 41.55, -1.76 25.82, 0 0 M0 55.71 C0.44 42.47, 0.5 29.67, 0 0" stroke="#1e1e1e" stroke-width="2" fill="none"></path></g><g transform="translate(49.5926513671875 25.988616943359375) rotate(0 39.52996063232422 12.5)"><text x="0" y="0" font-family="Virgil, Segoe UI Emoji" font-size="20px" fill="#1e1e1e" text-anchor="start" style="white-space: pre;" direction="ltr" dominant-baseline="text-before-edge">Explorer</text></g><g stroke-linecap="round" transform="translate(10 67.33914184570312) rotate(0 184.242431640625 27.853118896484375)"><path d="M0 0 C107.65 0.34, 215.65 2.04, 368.48 0 M0 0 C79.53 -0.51, 160.05 -0.34, 368.48 0 M368.48 0 C368 11.9, 367.32 26.59, 368.48 55.71 M368.48 0 C368.61 22.25, 367.55 44.92, 368.48 55.71 M368.48 55.71 C250.33 55.16, 130.86 54.84, 0 55.71 M368.48 55.71 C221.45 56.13, 73.61 56.65, 0 55.71 M0 55.71 C1.09 44.16, 2.01 29.07, 0 0 M0 55.71 C-1.14 34.36, -0.77 13.47, 0 0" stroke="#1e1e1e" stroke-width="2" fill="none"></path></g><g transform="translate(36.5675048828125 138.0423583984375) rotate(0 19.999984741210938 12.5)"><text x="0" y="0" font-family="Virgil, Segoe UI Emoji" font-size="20px" fill="#1e1e1e" text-anchor="start" style="white-space: pre;" direction="ltr" dominant-baseline="text-before-edge">Flow</text></g><g transform="translate(64.2806396484375 172.32940673828125) rotate(0 28.58997344970703 12.5)"><text x="0" y="0" font-family="Virgil, Segoe UI Emoji" font-size="20px" fill="#1e1e1e" text-anchor="start" style="white-space: pre;" direction="ltr" dominant-baseline="text-before-edge">Robot</text></g><g transform="translate(94.177490234375 204.70526123046875) rotate(0 47.63994598388672 25)"><text x="0" y="0" font-family="Virgil, Segoe UI Emoji" font-size="20px" fill="#1e1e1e" text-anchor="start" style="white-space: pre;" direction="ltr" dominant-baseline="text-before-edge">Processor</text><text x="0" y="25" font-family="Virgil, Segoe UI Emoji" font-size="20px" fill="#1e1e1e" text-anchor="start" style="white-space: pre;" direction="ltr" dominant-baseline="text-before-edge"></text></g><g stroke-linecap="round"><g transform="translate(333.9289898922199 93.75052359089989) rotate(0 13.533155200374438 -0.2193627475983817)"><path d="M0 0 C10.1 0.56, 17.92 -0.44, 27.07 -0.44 M0 0 C7.27 0.33, 15.49 -0.28, 27.07 -0.44" stroke="#1e1e1e" stroke-width="2" fill="none"></path></g><g transform="translate(333.9289898922199 93.75052359089989) rotate(0 13.533155200374438 -0.2193627475983817)"><path d="M14.46 4.49 C19.34 3.3, 22.68 1.05, 27.07 -0.44 M14.46 4.49 C17.78 3.43, 21.76 1.74, 27.07 -0.44" stroke="#1e1e1e" stroke-width="2" fill="none"></path></g><g transform="translate(333.9289898922199 93.75052359089989) rotate(0 13.533155200374438 -0.2193627475983817)"><path d="M14.24 -4.77 C19.21 -2.79, 22.62 -1.89, 27.07 -0.44 M14.24 -4.77 C17.66 -3.26, 21.7 -2.39, 27.07 -0.44" stroke="#1e1e1e" stroke-width="2" fill="none"></path></g></g><mask></mask><g stroke-linecap="round"><g transform="translate(361.1358337402344 104.05877016990428) rotate(0 -14.059758487554518 0.3502047812094986)"><path d="M0 0 C-8.73 0.92, -17.7 0.26, -28.12 0.7 M0 0 C-6.5 -0.17, -12.65 0.67, -28.12 0.7" stroke="#1e1e1e" stroke-width="2" fill="none"></path></g><g transform="translate(361.1358337402344 104.05877016990428) rotate(0 -14.059758487554518 0.3502047812094986)"><path d="M-14.99 -4.33 C-19.09 -2.31, -23.38 -1.39, -28.12 0.7 M-14.99 -4.33 C-18.09 -3.47, -20.97 -1.89, -28.12 0.7" stroke="#1e1e1e" stroke-width="2" fill="none"></path></g><g transform="translate(361.1358337402344 104.05877016990428) rotate(0 -14.059758487554518 0.3502047812094986)"><path d="M-14.82 5.29 C-19.02 4.39, -23.36 2.39, -28.12 0.7 M-14.82 5.29 C-18 4.05, -20.91 3.54, -28.12 0.7" stroke="#1e1e1e" stroke-width="2" fill="none"></path></g></g><mask></mask><g stroke-linecap="round"><g transform="translate(321.05841064453125 105.52621459960938) rotate(0 0 -8.292892456054688)"><path d="M0 0 C-0.09 -4.79, -0.85 -10.39, 0 -16.59 M0 0 C0.07 -4.88, -0.16 -9.18, 0 -16.59" stroke="#1e1e1e" stroke-width="2" fill="none"></path></g><g transform="translate(321.05841064453125 105.52621459960938) rotate(0 0 -8.292892456054688)"><path d="M2.76 -8.77 C1.81 -11.01, 0.53 -13.66, 0 -16.59 M2.76 -8.77 C2.02 -11.08, 1.12 -13.1, 0 -16.59" stroke="#1e1e1e" stroke-width="2" fill="none"></path></g><g transform="translate(321.05841064453125 105.52621459960938) rotate(0 0 -8.292892456054688)"><path d="M-2.91 -8.82 C-2 -11.03, -1.43 -13.66, 0 -16.59 M-2.91 -8.82 C-2.05 -11.1, -1.34 -13.1, 0 -16.59" stroke="#1e1e1e" stroke-width="2" fill="none"></path></g></g><mask></mask><g stroke-linecap="round"><g transform="translate(281.05291748046875 96.36083984375) rotate(0 10.5015869140625 0)"><path d="M0 0 C7.08 0.63, 11.8 -0.72, 21 0 M0 0 C7.2 -0.23, 15.42 -0.27, 21 0" stroke="#1e1e1e" stroke-width="2" fill="none"></path></g></g><mask></mask><g stroke-linecap="round"><g transform="translate(291.6497802734375 105.7509765625) rotate(0 0 -8.7158203125)"><path d="M0 0 C0.55 -3.26, 0.07 -7.75, 0 -17.43 M0 0 C-0.07 -5.75, -0.37 -10.68, 0 -17.43" stroke="#1e1e1e" stroke-width="2" fill="none"></path></g></g><mask></mask><g stroke-linecap="round" transform="translate(237.773681640625 86.09970092773438) rotate(0 12.473052978515625 11.177230834960938)"><path d="M0 0 C6.85 0.75, 12.28 -0.34, 24.95 0 M0 0 C6.78 0.19, 13.1 0.14, 24.95 0 M24.95 0 C25.22 9.28, 23.94 16.28, 24.95 22.35 M24.95 0 C25.16 5.58, 24.88 10.8, 24.95 22.35 M24.95 22.35 C17.03 22.85, 9.16 22.53, 0 22.35 M24.95 22.35 C15.61 22.35, 6.65 22.16, 0 22.35 M0 22.35 C-0.38 13.41, -0.3 4.58, 0 0 M0 22.35 C0.41 15.56, 0.22 9.65, 0 0" stroke="#e03131" stroke-width="2" fill="none"></path></g><g stroke-linecap="round" transform="translate(135.853515625 122.2733154296875) rotate(0 96.08261108398438 155.07020568847656)"><path d="M1.08 -1.44 L193.84 1.22 L190.93 309.49 L-0.74 308.35" stroke="none" stroke-width="0" fill="#ffffff"></path><path d="M0 0 C65.94 2.12, 134.19 0.09, 192.17 0 M0 0 C55.82 -1, 109.82 -0.58, 192.17 0 M192.17 0 C190.63 115.57, 190.19 231.17, 192.17 310.14 M192.17 0 C193.2 100.35, 192.86 201.57, 192.17 310.14 M192.17 310.14 C143.74 311.88, 94.86 310.39, 0 310.14 M192.17 310.14 C135.44 309.41, 80.48 310.31, 0 310.14 M0 310.14 C-2.54 194.98, -1.71 82.27, 0 0 M0 310.14 C-2.21 190.12, -1.77 69.82, 0 0" stroke="#e03131" stroke-width="2" fill="none"></path></g><g stroke-linecap="round"><g transform="translate(248.55389404296875 108.7281494140625) rotate(0 -3.55328369140625 6.5006256103515625)"><path d="M0 0 C-1.77 4.58, -4.17 8.29, -7.11 13 M0 0 C-2.51 5.01, -5.35 8.94, -7.11 13" stroke="#e03131" stroke-width="2" fill="none"></path></g></g><mask></mask><g stroke-linecap="round"><g transform="translate(249.82232666015625 109.07196044921875) rotate(0 3.1273888581052347 6.341784165510319)"><path d="M0 0 C1.94 4.04, 4.36 7.83, 6.25 12.68 M0 0 C2.27 3.85, 4.18 8.58, 6.25 12.68" stroke="#e03131" stroke-width="2" fill="none"></path></g></g><mask></mask><g stroke-linecap="round" transform="translate(148.63275146484375 153.55905151367188) rotate(0 11.340850830078125 10.833572387695312)"><path d="M-0.59 -0.41 L21.86 0.22 L21.75 21.11 L-0.66 21.01" stroke="none" stroke-width="0" fill="#ffffff"></path><path d="M0 0 C7.68 -0.72, 15.31 -0.13, 22.68 0 M0 0 C5.77 -0.34, 11.84 -0.16, 22.68 0 M22.68 0 C23.03 8.07, 23.07 15.3, 22.68 21.67 M22.68 0 C22.65 7.34, 23.06 14.98, 22.68 21.67 M22.68 21.67 C16.31 21.05, 9.7 22.24, 0 21.67 M22.68 21.67 C14.35 21.97, 5.57 22.02, 0 21.67 M0 21.67 C0.64 15.51, 0.19 8.77, 0 0 M0 21.67 C-0.03 16.08, -0.47 10.77, 0 0" stroke="#e03131" stroke-width="2" fill="none"></path></g><g transform="translate(184.81170654296875 151.21212768554688) rotate(0 33.689971923828125 12.5)"><text x="0" y="0" font-family="Virgil, Segoe UI Emoji" font-size="20px" fill="#e03131" text-anchor="start" style="white-space: pre;" direction="ltr" dominant-baseline="text-before-edge">Filter 1</text></g><g stroke-linecap="round" transform="translate(147.67221069335938 186.90252685546875) rotate(0 11.340850830078125 10.833572387695312)"><path d="M-0.02 0.18 L21.82 0.95 L22 22.45 L-0.21 22.61" stroke="none" stroke-width="0" fill="#ffffff"></path><path d="M0 0 C7.5 -0.46, 16.2 0.44, 22.68 0 M0 0 C8.77 0, 17.05 0.16, 22.68 0 M22.68 0 C23.37 5.15, 22.44 9.61, 22.68 21.67 M22.68 0 C22.97 5.95, 22.91 12.66, 22.68 21.67 M22.68 21.67 C17.06 22.3, 11.69 22.63, 0 21.67 M22.68 21.67 C15.86 21.57, 9.1 21.21, 0 21.67 M0 21.67 C0.34 14.47, 0.57 8.42, 0 0 M0 21.67 C-0.38 14.81, 0.04 6.89, 0 0" stroke="#e03131" stroke-width="2" fill="none"></path></g><g transform="translate(183.85116577148438 184.55560302734375) rotate(0 38.09996795654297 12.5)"><text x="0" y="0" font-family="Virgil, Segoe UI Emoji" font-size="20px" fill="#e03131" text-anchor="start" style="white-space: pre;" direction="ltr" dominant-baseline="text-before-edge">Filter 2</text></g><g stroke-linecap="round" transform="translate(146.57626342773438 222.884521484375) rotate(0 11.340850830078125 10.833572387695312)"><path d="M-0.37 0.01 L22.57 0.23 L22.32 21.88 L0.61 21.65" stroke="none" stroke-width="0" fill="#ffffff"></path><path d="M0 0 C8.04 0.5, 14.22 0.07, 22.68 0 M0 0 C4.28 -0.41, 9.55 -0.17, 22.68 0 M22.68 0 C21.93 9.39, 22.44 16.7, 22.68 21.67 M22.68 0 C22.54 7.17, 23.12 13.72, 22.68 21.67 M22.68 21.67 C13.43 20.65, 4.99 21.32, 0 21.67 M22.68 21.67 C15.37 22.14, 7.35 21.74, 0 21.67 M0 21.67 C-0.34 13.44, -0.42 4.07, 0 0 M0 21.67 C-0.05 15.18, 0.41 8.61, 0 0" stroke="#e03131" stroke-width="2" fill="none"></path></g><g transform="translate(182.75521850585938 220.53759765625) rotate(0 37.78997039794922 12.5)"><text x="0" y="0" font-family="Virgil, Segoe UI Emoji" font-size="20px" fill="#e03131" text-anchor="start" style="white-space: pre;" direction="ltr" dominant-baseline="text-before-edge">Filter 3</text></g><g transform="translate(151.98748779296875 253.55853271484375) rotate(0 8.219993591308594 12.5)"><text x="0" y="0" font-family="Virgil, Segoe UI Emoji" font-size="20px" fill="#e03131" text-anchor="start" style="white-space: pre;" direction="ltr" dominant-baseline="text-before-edge">...</text></g><g stroke-linecap="round"><g transform="translate(155.66998291015625 164.75436401367188) rotate(0 5.670309305018122 -0.38182277631818806)"><path d="M0 0 C0.95 1.19, 1.32 2.22, 3.79 5.77 M0 0 C0.79 1.19, 1.83 2.4, 3.79 5.77 M3.79 5.77 C6.15 2.89, 7.43 -0.35, 11.34 -6.54 M3.79 5.77 C6.62 1.46, 9.17 -2.82, 11.34 -6.54" stroke="#e03131" stroke-width="2" fill="none"></path></g></g><mask></mask><g transform="translate(249.71074614029658 118.7723995186571) rotate(0 0.00004999999998744897 0.00004999999998744897)" stroke="none"><path fill="#e03131" d="M 3.14,-3.14 Q 3.14,-3.14 3.55,-2.55 3.97,-1.97 4.18,-1.28 4.40,-0.59 4.38,0.11 4.36,0.83 4.11,1.51 3.86,2.18 3.41,2.74 2.96,3.30 2.36,3.69 1.75,4.08 1.05,4.25 0.36,4.42 -0.35,4.36 -1.07,4.31 -1.73,4.02 -2.39,3.74 -2.92,3.26 -3.46,2.78 -3.81,2.15 -4.16,1.53 -4.30,0.82 -4.43,0.11 -4.34,-0.59 -4.24,-1.30 -3.92,-1.94 -3.60,-2.59 -3.09,-3.09 -2.59,-3.60 -1.94,-3.92 -1.30,-4.24 -0.59,-4.34 0.12,-4.43 0.82,-4.30 1.53,-4.16 2.15,-3.81 2.78,-3.46 3.26,-2.92 3.74,-2.39 4.02,-1.73 4.31,-1.07 4.36,-0.35 4.42,0.36 4.25,1.05 4.07,1.75 3.69,2.36 3.30,2.96 2.74,3.41 2.18,3.86 1.51,4.11 0.83,4.36 0.11,4.38 -0.60,4.40 -1.28,4.18 -1.97,3.97 -2.55,3.55 -3.14,3.13 -3.14,3.14 -3.14,3.14 -3.47,2.71 -3.80,2.29 -4.02,1.80 -4.24,1.32 -4.33,0.79 -4.43,0.26 -4.40,-0.26 -4.36,-0.80 -4.20,-1.31 -4.04,-1.82 -3.77,-2.28 -3.49,-2.73 -3.11,-3.11 -2.73,-3.49 -2.28,-3.77 -1.82,-4.05 -1.31,-4.20 -0.80,-4.36 -0.26,-4.40 0.26,-4.43 0.79,-4.33 1.32,-4.24 1.80,-4.02 2.29,-3.80 2.71,-3.47 3.14,-3.14 3.14,-3.14 L 3.14,-3.14 Z"></path></g><g transform="translate(247.77651521988082 119.69905533096392) rotate(0 0.00004999999998744897 0.00004999999998744897)" stroke="none"><path fill="#e03131" d="M 3.14,-3.14 Q 3.14,-3.14 3.55,-2.55 3.97,-1.97 4.18,-1.28 4.40,-0.59 4.38,0.11 4.36,0.83 4.11,1.51 3.86,2.18 3.41,2.74 2.96,3.30 2.36,3.69 1.75,4.08 1.05,4.25 0.36,4.42 -0.35,4.36 -1.07,4.31 -1.73,4.02 -2.39,3.74 -2.92,3.26 -3.46,2.78 -3.81,2.15 -4.16,1.53 -4.30,0.82 -4.43,0.11 -4.34,-0.59 -4.24,-1.30 -3.92,-1.94 -3.60,-2.59 -3.09,-3.09 -2.59,-3.60 -1.94,-3.92 -1.30,-4.24 -0.59,-4.34 0.12,-4.43 0.82,-4.30 1.53,-4.16 2.15,-3.81 2.78,-3.46 3.26,-2.92 3.74,-2.39 4.02,-1.73 4.31,-1.07 4.36,-0.35 4.42,0.36 4.25,1.05 4.07,1.75 3.69,2.36 3.30,2.96 2.74,3.41 2.18,3.86 1.51,4.11 0.83,4.36 0.11,4.38 -0.60,4.40 -1.28,4.18 -1.97,3.97 -2.55,3.55 -3.14,3.13 -3.14,3.14 -3.14,3.14 -3.47,2.71 -3.80,2.29 -4.02,1.80 -4.24,1.32 -4.33,0.79 -4.43,0.26 -4.40,-0.26 -4.36,-0.80 -4.20,-1.31 -4.04,-1.82 -3.77,-2.28 -3.49,-2.73 -3.11,-3.11 -2.73,-3.49 -2.28,-3.77 -1.82,-4.05 -1.31,-4.20 -0.80,-4.36 -0.26,-4.40 0.26,-4.43 0.79,-4.33 1.32,-4.24 1.80,-4.02 2.29,-3.80 2.71,-3.47 3.14,-3.14 3.14,-3.14 L 3.14,-3.14 Z"></path></g><g transform="translate(250.91898365309066 119.31544710841086) rotate(0 0.00004999999998744897 0.00004999999998744897)" stroke="none"><path fill="#e03131" d="M 3.14,-3.14 Q 3.14,-3.14 3.55,-2.55 3.97,-1.97 4.18,-1.28 4.40,-0.59 4.38,0.11 4.36,0.83 4.11,1.51 3.86,2.18 3.41,2.74 2.96,3.30 2.36,3.69 1.75,4.08 1.05,4.25 0.36,4.42 -0.35,4.36 -1.07,4.31 -1.73,4.02 -2.39,3.74 -2.92,3.26 -3.46,2.78 -3.81,2.15 -4.16,1.53 -4.30,0.82 -4.43,0.11 -4.34,-0.59 -4.24,-1.30 -3.92,-1.94 -3.60,-2.59 -3.09,-3.09 -2.59,-3.60 -1.94,-3.92 -1.30,-4.24 -0.59,-4.34 0.12,-4.43 0.82,-4.30 1.53,-4.16 2.15,-3.81 2.78,-3.46 3.26,-2.92 3.74,-2.39 4.02,-1.73 4.31,-1.07 4.36,-0.35 4.42,0.36 4.25,1.05 4.07,1.75 3.69,2.36 3.30,2.96 2.74,3.41 2.18,3.86 1.51,4.11 0.83,4.36 0.11,4.38 -0.60,4.40 -1.28,4.18 -1.97,3.97 -2.55,3.55 -3.14,3.13 -3.14,3.14 -3.14,3.14 -3.47,2.71 -3.80,2.29 -4.02,1.80 -4.24,1.32 -4.33,0.79 -4.43,0.26 -4.40,-0.26 -4.36,-0.80 -4.20,-1.31 -4.04,-1.82 -3.77,-2.28 -3.49,-2.73 -3.11,-3.11 -2.73,-3.49 -2.28,-3.77 -1.82,-4.05 -1.31,-4.20 -0.80,-4.36 -0.26,-4.40 0.26,-4.43 0.79,-4.33 1.32,-4.24 1.80,-4.02 2.29,-3.80 2.71,-3.47 3.14,-3.14 3.14,-3.14 L 3.14,-3.14 Z"></path></g><g transform="translate(251.82842850025247 119.54371050789041) rotate(0 0.00004999999998744897 0.00004999999998744897)" stroke="none"><path fill="#e03131" d="M 3.14,-3.14 Q 3.14,-3.14 3.55,-2.55 3.97,-1.97 4.18,-1.28 4.40,-0.59 4.38,0.11 4.36,0.83 4.11,1.51 3.86,2.18 3.41,2.74 2.96,3.30 2.36,3.69 1.75,4.08 1.05,4.25 0.36,4.42 -0.35,4.36 -1.07,4.31 -1.73,4.02 -2.39,3.74 -2.92,3.26 -3.46,2.78 -3.81,2.15 -4.16,1.53 -4.30,0.82 -4.43,0.11 -4.34,-0.59 -4.24,-1.30 -3.92,-1.94 -3.60,-2.59 -3.09,-3.09 -2.59,-3.60 -1.94,-3.92 -1.30,-4.24 -0.59,-4.34 0.12,-4.43 0.82,-4.30 1.53,-4.16 2.15,-3.81 2.78,-3.46 3.26,-2.92 3.74,-2.39 4.02,-1.73 4.31,-1.07 4.36,-0.35 4.42,0.36 4.25,1.05 4.07,1.75 3.69,2.36 3.30,2.96 2.74,3.41 2.18,3.86 1.51,4.11 0.83,4.36 0.11,4.38 -0.60,4.40 -1.28,4.18 -1.97,3.97 -2.55,3.55 -3.14,3.13 -3.14,3.14 -3.14,3.14 -3.47,2.71 -3.80,2.29 -4.02,1.80 -4.24,1.32 -4.33,0.79 -4.43,0.26 -4.40,-0.26 -4.36,-0.80 -4.20,-1.31 -4.04,-1.82 -3.77,-2.28 -3.49,-2.73 -3.11,-3.11 -2.73,-3.49 -2.28,-3.77 -1.82,-4.05 -1.31,-4.20 -0.80,-4.36 -0.26,-4.40 0.26,-4.43 0.79,-4.33 1.32,-4.24 1.80,-4.02 2.29,-3.80 2.71,-3.47 3.14,-3.14 3.14,-3.14 L 3.14,-3.14 Z"></path></g><g transform="translate(249.43584657719862 115.6469041109819) rotate(0 0.00004999999998744897 0.00004999999998744897)" stroke="none"><path fill="#e03131" d="M 3.14,-3.14 Q 3.14,-3.14 3.55,-2.55 3.97,-1.97 4.18,-1.28 4.40,-0.59 4.38,0.11 4.36,0.83 4.11,1.51 3.86,2.18 3.41,2.74 2.96,3.30 2.36,3.69 1.75,4.08 1.05,4.25 0.36,4.42 -0.35,4.36 -1.07,4.31 -1.73,4.02 -2.39,3.74 -2.92,3.26 -3.46,2.78 -3.81,2.15 -4.16,1.53 -4.30,0.82 -4.43,0.11 -4.34,-0.59 -4.24,-1.30 -3.92,-1.94 -3.60,-2.59 -3.09,-3.09 -2.59,-3.60 -1.94,-3.92 -1.30,-4.24 -0.59,-4.34 0.12,-4.43 0.82,-4.30 1.53,-4.16 2.15,-3.81 2.78,-3.46 3.26,-2.92 3.74,-2.39 4.02,-1.73 4.31,-1.07 4.36,-0.35 4.42,0.36 4.25,1.05 4.07,1.75 3.69,2.36 3.30,2.96 2.74,3.41 2.18,3.86 1.51,4.11 0.83,4.36 0.11,4.38 -0.60,4.40 -1.28,4.18 -1.97,3.97 -2.55,3.55 -3.14,3.13 -3.14,3.14 -3.14,3.14 -3.47,2.71 -3.80,2.29 -4.02,1.80 -4.24,1.32 -4.33,0.79 -4.43,0.26 -4.40,-0.26 -4.36,-0.80 -4.20,-1.31 -4.04,-1.82 -3.77,-2.28 -3.49,-2.73 -3.11,-3.11 -2.73,-3.49 -2.28,-3.77 -1.82,-4.05 -1.31,-4.20 -0.80,-4.36 -0.26,-4.40 0.26,-4.43 0.79,-4.33 1.32,-4.24 1.80,-4.02 2.29,-3.80 2.71,-3.47 3.14,-3.14 3.14,-3.14 L 3.14,-3.14 Z"></path></g><g transform="translate(249.67289391395832 113.18513133208336) rotate(0 0.00004999999998744897 0.00004999999998744897)" stroke="none"><path fill="#e03131" d="M 1.57,-1.57 Q 1.57,-1.57 1.77,-1.27 1.98,-0.98 2.09,-0.64 2.20,-0.29 2.19,0.05 2.18,0.41 2.05,0.75 1.93,1.09 1.70,1.37 1.48,1.65 1.18,1.84 0.87,2.04 0.52,2.12 0.18,2.21 -0.17,2.18 -0.53,2.15 -0.86,2.01 -1.19,1.87 -1.46,1.63 -1.73,1.39 -1.90,1.07 -2.08,0.76 -2.15,0.41 -2.21,0.05 -2.17,-0.29 -2.12,-0.65 -1.96,-0.97 -1.80,-1.29 -1.54,-1.54 -1.29,-1.80 -0.97,-1.96 -0.65,-2.12 -0.29,-2.17 0.06,-2.21 0.41,-2.15 0.76,-2.08 1.07,-1.90 1.39,-1.73 1.63,-1.46 1.87,-1.19 2.01,-0.86 2.15,-0.53 2.18,-0.17 2.21,0.18 2.12,0.52 2.03,0.87 1.84,1.18 1.65,1.48 1.37,1.70 1.09,1.93 0.75,2.05 0.41,2.18 0.05,2.19 -0.30,2.20 -0.64,2.09 -0.98,1.98 -1.27,1.77 -1.57,1.56 -1.57,1.57 -1.57,1.57 -1.73,1.35 -1.90,1.14 -2.01,0.90 -2.12,0.66 -2.16,0.39 -2.21,0.13 -2.20,-0.13 -2.18,-0.40 -2.10,-0.65 -2.02,-0.91 -1.88,-1.14 -1.74,-1.36 -1.55,-1.55 -1.36,-1.74 -1.14,-1.88 -0.91,-2.02 -0.65,-2.10 -0.40,-2.18 -0.13,-2.20 0.13,-2.21 0.39,-2.16 0.66,-2.12 0.90,-2.01 1.14,-1.90 1.35,-1.73 1.57,-1.57 1.57,-1.57 L 1.57,-1.57 Z"></path></g><g transform="translate(249.57543781524032 112.83968267453196) rotate(0 0.00004999999998744897 0.00004999999998744897)" stroke="none"><path fill="#e03131" d="M 1.57,-1.57 Q 1.57,-1.57 1.77,-1.27 1.98,-0.98 2.09,-0.64 2.20,-0.29 2.19,0.05 2.18,0.41 2.05,0.75 1.93,1.09 1.70,1.37 1.48,1.65 1.18,1.84 0.87,2.04 0.52,2.12 0.18,2.21 -0.17,2.18 -0.53,2.15 -0.86,2.01 -1.19,1.87 -1.46,1.63 -1.73,1.39 -1.90,1.07 -2.08,0.76 -2.15,0.41 -2.21,0.05 -2.17,-0.29 -2.12,-0.65 -1.96,-0.97 -1.80,-1.29 -1.54,-1.54 -1.29,-1.80 -0.97,-1.96 -0.65,-2.12 -0.29,-2.17 0.06,-2.21 0.41,-2.15 0.76,-2.08 1.07,-1.90 1.39,-1.73 1.63,-1.46 1.87,-1.19 2.01,-0.86 2.15,-0.53 2.18,-0.17 2.21,0.18 2.12,0.52 2.03,0.87 1.84,1.18 1.65,1.48 1.37,1.70 1.09,1.93 0.75,2.05 0.41,2.18 0.05,2.19 -0.30,2.20 -0.64,2.09 -0.98,1.98 -1.27,1.77 -1.57,1.56 -1.57,1.57 -1.57,1.57 -1.73,1.35 -1.90,1.14 -2.01,0.90 -2.12,0.66 -2.16,0.39 -2.21,0.13 -2.20,-0.13 -2.18,-0.40 -2.10,-0.65 -2.02,-0.91 -1.88,-1.14 -1.74,-1.36 -1.55,-1.55 -1.36,-1.74 -1.14,-1.88 -0.91,-2.02 -0.65,-2.10 -0.40,-2.18 -0.13,-2.20 0.13,-2.21 0.39,-2.16 0.66,-2.12 0.90,-2.01 1.14,-1.90 1.35,-1.73 1.57,-1.57 1.57,-1.57 L 1.57,-1.57 Z"></path></g><g transform="translate(249.392720022832 111.63075117120792) rotate(0 0.00004999999998744897 0.00004999999998744897)" stroke="none"><path fill="#e03131" d="M 1.57,-1.57 Q 1.57,-1.57 1.77,-1.27 1.98,-0.98 2.09,-0.64 2.20,-0.29 2.19,0.05 2.18,0.41 2.05,0.75 1.93,1.09 1.70,1.37 1.48,1.65 1.18,1.84 0.87,2.04 0.52,2.12 0.18,2.21 -0.17,2.18 -0.53,2.15 -0.86,2.01 -1.19,1.87 -1.46,1.63 -1.73,1.39 -1.90,1.07 -2.08,0.76 -2.15,0.41 -2.21,0.05 -2.17,-0.29 -2.12,-0.65 -1.96,-0.97 -1.80,-1.29 -1.54,-1.54 -1.29,-1.80 -0.97,-1.96 -0.65,-2.12 -0.29,-2.17 0.06,-2.21 0.41,-2.15 0.76,-2.08 1.07,-1.90 1.39,-1.73 1.63,-1.46 1.87,-1.19 2.01,-0.86 2.15,-0.53 2.18,-0.17 2.21,0.18 2.12,0.52 2.03,0.87 1.84,1.18 1.65,1.48 1.37,1.70 1.09,1.93 0.75,2.05 0.41,2.18 0.05,2.19 -0.30,2.20 -0.64,2.09 -0.98,1.98 -1.27,1.77 -1.57,1.56 -1.57,1.57 -1.57,1.57 -1.73,1.35 -1.90,1.14 -2.01,0.90 -2.12,0.66 -2.16,0.39 -2.21,0.13 -2.20,-0.13 -2.18,-0.40 -2.10,-0.65 -2.02,-0.91 -1.88,-1.14 -1.74,-1.36 -1.55,-1.55 -1.36,-1.74 -1.14,-1.88 -0.91,-2.02 -0.65,-2.10 -0.40,-2.18 -0.13,-2.20 0.13,-2.21 0.39,-2.16 0.66,-2.12 0.90,-2.01 1.14,-1.90 1.35,-1.73 1.57,-1.57 1.57,-1.57 L 1.57,-1.57 Z"></path></g></svg>