<?xml version="1.0" encoding="UTF-8"?>
<svg xmlns="http://www.w3.org/2000/svg" xmlns:xlink="http://www.w3.org/1999/xlink" width="16px" height="16px" viewBox="0 0 16 16" version="1.1">
<g id="surface1">
<path style=" stroke:none;fill-rule:nonzero;fill:rgb(25.882354%,25.882354%,25.882354%);fill-opacity:1;" d="M 2 3.332031 L 0.667969 3.332031 L 0.667969 14 C 0.667969 14.734375 1.265625 15.332031 2 15.332031 L 12.667969 15.332031 L 12.667969 14 L 2 14 Z M 14 0.667969 L 4.667969 0.667969 C 3.933594 0.667969 3.332031 1.265625 3.332031 2 L 3.332031 11.332031 C 3.332031 12.066406 3.933594 12.667969 4.667969 12.667969 L 14 12.667969 C 14.734375 12.667969 15.332031 12.066406 15.332031 11.332031 L 15.332031 2 C 15.332031 1.265625 14.734375 0.667969 14 0.667969 Z M 14 11.332031 L 4.667969 11.332031 L 4.667969 2 L 14 2 Z M 14 11.332031 "/>
<path style=" stroke:none;fill-rule:nonzero;fill:rgb(25.882354%,25.882354%,25.882354%);fill-opacity:1;" d="M 7.738281 8.351562 L 10.882812 8.34375 L 11.558594 10 L 12.78125 10.003906 L 9.972656 3.324219 L 8.65625 3.332031 L 5.714844 10 L 7.128906 10 Z M 9.335938 4.253906 L 10.519531 7.332031 L 8.15625 7.332031 Z M 9.335938 4.253906 "/>
</g>
</svg>
