<svg xmlns="http://www.w3.org/2000/svg" width="64" height="64" fill="none" viewBox="0 0 15 15"><path d="M7.5 2.196v10.443M7.4 2.696H5.388M7.4 12.14H5.388" style="stroke:#000;stroke-opacity:1" transform="translate(.938 .481)"/><path d="M7.5 2.196v10.443M7.4 2.696H5.388M7.4 12.14H5.388" style="stroke:#000;stroke-opacity:1" transform="matrix(-1 0 0 1 8.059 .481)"/><path d="M12 7.5a1.5 1.5 0 0 1 0 3H9.5v-3M12 7.5a1.5 1.5 0 0 0 0-3H9.5v3M12 7.5H9.5M1.5 8.5h4M1.5 11V6.5a2 2 0 1 1 4 0V11" style="stroke:#000;stroke-opacity:1" transform="translate(.938)"/></svg>