<?xml version="1.0" encoding="UTF-8" standalone="no"?>
<svg
        xmlns:dc="http://purl.org/dc/elements/1.1/"
        xmlns:cc="http://creativecommons.org/ns#"
        xmlns:rdf="http://www.w3.org/1999/02/22-rdf-syntax-ns#"
        xmlns:sodipodi="http://sodipodi.sourceforge.net/DTD/sodipodi-0.dtd"
        xmlns:inkscape="http://www.inkscape.org/namespaces/inkscape"
        xmlns="http://www.w3.org/2000/svg"
        viewBox="0 0 24 24"
        width="16"
        height="16"
        version="1.1"
        id="svg6"
        sodipodi:docname="ConditionalStyle.svg"
        inkscape:version="1.0.2 (e86c870879, 2021-01-15)">
    <metadata
            id="metadata12">
        <rdf:RDF>
            <cc:Work
                    rdf:about="">
                <dc:format>image/svg+xml</dc:format>
                <dc:type
                        rdf:resource="http://purl.org/dc/dcmitype/StillImage"/>
            </cc:Work>
        </rdf:RDF>
    </metadata>
    <defs
            id="defs10"/>
    <sodipodi:namedview
            pagecolor="#ffffff"
            bordercolor="#666666"
            borderopacity="1"
            objecttolerance="10"
            gridtolerance="10"
            guidetolerance="10"
            inkscape:pageopacity="0"
            inkscape:pageshadow="2"
            inkscape:window-width="2266"
            inkscape:window-height="1721"
            id="namedview8"
            showgrid="false"
            inkscape:zoom="5.6679028"
            inkscape:cx="-106.29854"
            inkscape:cy="-27.450894"
            inkscape:window-x="191"
            inkscape:window-y="136"
            inkscape:window-maximized="0"
            inkscape:current-layer="svg6"
            inkscape:document-rotation="0"/>
    <path
            fill="none"
            d="M0 0h24v24H0z"
            id="path2"/>
    <path
            d="M15.456 9.678l-.142-.142a5.475 5.475 0 0 0-2.39-1.349c-2.907-.778-5.699.869-6.492 3.83-.043.16-.066.34-.104.791-.154 1.87-.594 3.265-1.8 4.68 2.26.888 4.938 1.514 6.974 1.514a5.505 5.505 0 0 0 5.31-4.078 5.497 5.497 0 0 0-1.356-5.246zM13.29 6.216l4.939-3.841a1 1 0 0 1 1.32.082l2.995 2.994a1 1 0 0 1 .082 1.321l-3.84 4.938a7.505 7.505 0 0 1-7.283 9.292C8 21.002 3.5 19.5 1 18c3.98-3 3.047-4.81 3.5-6.5 1.058-3.95 4.842-6.257 8.789-5.284zm3.413 1.879c.065.063.13.128.193.194l1.135 1.134 2.475-3.182-1.746-1.746-3.182 2.475 1.125 1.125z"
            fill="rgba(0,43,60,1)"
            id="path4"/>
    <path
            d="m 10.708576,17.71345 h 1.460039 v -1.460039 h -1.460039 z m 0.73002,-8.7602336 c -1.6133425,0 -2.9200774,1.3067346 -2.9200774,2.9200776 h 1.4600389 c 0,-0.803021 0.6570175,-1.460039 1.4600385,-1.460039 0.803022,0 1.460039,0.657018 1.460039,1.460039 0,1.460039 -2.190059,1.277534 -2.190059,3.650098 h 1.460039 c 0,-1.642544 2.190059,-1.825049 2.190059,-3.650098 0,-1.613343 -1.306735,-2.9200776 -2.920078,-2.9200776 z"
            id="path4-3"
            sodipodi:nodetypes="cccccsccssccss"
            style="stroke-width:0.730019"/>
</svg>
