<svg xmlns="http://www.w3.org/2000/svg" viewBox="0 0 19.875 19.875"><path fill="#212121" d="M5.09.002a.74.74 0 0 0-.647.472L.69 9.97l-.032.098a.75.75 0 0 0 .454.876l.096.03a.75.75 0 0 0 .876-.452L3.08 8h4.113l.74 1.88 1.158-1.156L5.839.474 5.789.37a.74.74 0 0 0-.7-.367m.05 2.79L6.602 6.5H3.673z"/><g transform="matrix(.66 0 0 .66 4.719 5.361)"><path d="M12 22C6.49 22 2 17.51 2 12S6.49 2 12 2s10 4.04 10 9c0 3.31-2.69 6-6 6h-1.77c-.28 0-.5.22-.5.5 0 .12.05.23.13.33.41.47.64 1.06.64 1.67A2.5 2.5 0 0 1 12 22m0-18c-4.41 0-8 3.59-8 8s3.59 8 8 8c.28 0 .5-.22.5-.5a.54.54 0 0 0-.14-.35c-.41-.46-.63-1.05-.63-1.65a2.5 2.5 0 0 1 2.5-2.5H16c2.21 0 4-1.79 4-4 0-3.86-3.59-7-8-7" style="fill:#212121;fill-opacity:1;stroke:none;stroke-opacity:1"/><circle cx="6.5" cy="11.5" r="1.5" style="fill:#212121;fill-opacity:1;stroke:none;stroke-opacity:1"/><circle cx="9.5" cy="7.5" r="1.5" style="fill:#212121;fill-opacity:1;stroke:none;stroke-opacity:1"/><circle cx="14.5" cy="7.5" r="1.5" style="fill:#212121;fill-opacity:1;stroke:none;stroke-opacity:1"/><circle cx="17.5" cy="11.5" r="1.5" style="fill:#212121;fill-opacity:1;stroke:none;stroke-opacity:1"/></g></svg>