<svg xmlns="http://www.w3.org/2000/svg" viewBox="0 0 19.875 19.875"><g style="stroke:none;stroke-opacity:1" transform="translate(-.322 .165)"><path fill="#212121" fill-rule="nonzero" d="M7.453 2.002a.74.74 0 0 0-.647.472L3.053 11.97l-.032.098a.75.75 0 0 0 .454.876l.096.03a.75.75 0 0 0 .876-.452L5.443 10h4.113l.741 1.88 1.157-1.156-3.252-8.25-.05-.105a.74.74 0 0 0-.699-.367m.05 2.79L8.964 8.5H6.036Z" style="stroke:none;stroke-opacity:1"/></g><path d="m10.322 7.611 2.423 2.423-5.26 5.26-2.16.239a.454.454 0 0 1-.502-.502l.24-2.161Zm3.921-.36-1.137-1.138a.91.91 0 0 0-1.285 0l-1.07 1.07 2.422 2.423 1.07-1.07a.91.91 0 0 0 0-1.286z" style="fill:#212121;fill-opacity:1;stroke:#212121;stroke-width:.0189236;stroke-opacity:1" transform="translate(2.678 2.165)"/></svg>