<?xml version="1.0" encoding="iso-8859-1"?>
<!-- Uploaded to: SVG Repo, www.svgrepo.com, Generator: SVG Repo Mixer Tools -->
<svg fill="#000000" height="800px" width="800px" version="1.1" id="Layer_1" xmlns="http://www.w3.org/2000/svg" xmlns:xlink="http://www.w3.org/1999/xlink" 
	 viewBox="0 0 231.843 231.843" xml:space="preserve">
<g>
	<g>
		<g>
			<path d="M201.854,91.599c-6.948-13.844-13.512-26.924-15.428-40.02c-1.828-12.476-11.892-21.588-19.956-25.6
				c-2.72-1.356-6.404-2.72-8.496-1.584c-0.556,0.306-1.595,0.528-2.879,0.68l0.591-6.056c0.208-2.136,0.42-4.34,1.252-6.24
				c1.072-2.448,3.108-4.344,5.264-6.344c0.652-0.604,1.3-1.208,1.92-1.824c0.284-0.28,1.204-1.288,1.16-2.5
				c-0.02-0.608-0.284-1.164-0.752-1.564c-0.776-0.66-1.74-0.556-2.152-0.516c-4.32,0.468-8.604,1.84-12.384,3.98
				c-0.948,0.536-1.92,1.172-2.576,2.176c-0.924,1.42-0.916,3.104-0.912,4.332c0.008,2.468,0.004,3.268,0,4.068
				c-0.004,0.804-0.008,1.608,0,4.092l2.836-0.012c-0.008-2.464-0.004-3.264,0-4.064c0.004-0.808,0.008-1.612,0-4.096
				c-0.008-1.128,0.024-2.116,0.448-2.768c0.304-0.468,0.86-0.84,1.596-1.256c3.216-1.82,6.828-3.032,10.5-3.652
				c-0.528,0.52-1.072,1.024-1.62,1.532c-2.268,2.112-4.62,4.292-5.932,7.28c-1.016,2.316-1.26,4.86-1.476,7.104l-0.631,6.534
				c-3.93,0.141-8.559-0.173-10.149-0.83c-2.332-0.956-6.684,1.168-9.064,2.52c-3.76,2.14-16.188,10.236-18.292,24.608
				c-1.562,10.676-6.225,21.343-11.654,32.42c-3.684-5.567-6.78-11.16-8.822-16.96c-4.932-14.016-14.912-20.84-29.288-20.516
				l-0.48,0.012l-0.42,0.228c-0.68,0.372-1.34,0.78-2,1.188c-1.136,0.7-2.208,1.364-3.34,1.776c-1.94,0.7-4.088,0.412-6.356,0.116
				c-1.172-0.156-2.344-0.308-3.52-0.348l-0.368-0.012l-0.348,0.12C33.814,54.511,26.918,64.719,27.63,79.939
				c0.58,12.408-3.14,25.644-7.08,39.652c-4.724,16.78-9.604,34.136-6.476,50.168c9.944,50.996,38.764,62.084,61.948,62.084
				c5.612,0,10.896-0.648,15.492-1.54c11.368-2.199,20.927-6.141,28.613-11.754c8.379,4.352,17.852,6.598,28.379,6.598
				c0.704,0,1.412-0.008,2.12-0.028c47.064-1.296,68.132-42.36,68.132-82.484C218.758,125.287,210.166,108.159,201.854,91.599z
				 M34.318,84.811C33.623,71.312,38.52,60,47.277,54.206c0.585-0.24,1.175-0.476,1.793-0.695c0.924,0.052,1.848,0.18,2.768,0.292
				c0.019,0.003,0.039,0.005,0.059,0.008c0.94,1.129,1.552,2.49,1.813,4.04c0.12,0.72,1.212,0.412,1.092-0.3
				c-0.221-1.312-0.691-2.5-1.368-3.551c0.933,0.104,1.876,0.17,2.832,0.15c-0.318,3.961,0.021,7.89,1.072,11.785
				c0.188,0.704,1.284,0.404,1.092-0.3c-1.032-3.822-1.366-7.671-1.032-11.557c0.627-0.065,1.26-0.18,1.899-0.357
				c-0.479,1.438-0.696,2.952-0.631,4.542c0.032,0.728,1.164,0.732,1.132,0c-0.074-1.798,0.232-3.466,0.901-5.037
				c1.259-0.531,2.384-1.212,3.467-1.883c0.324-0.198,0.647-0.392,0.971-0.586c9.04,1.765,19.653,8.616,24.745,23.294
				c3.924,11.316,12.08,22.136,19.968,32.6c9.572,12.692,19.464,25.82,22.272,40.212c3.088,15.84,4.396,38.244-6.928,55.032
				c-7.36,10.912-19.168,18.008-35.092,21.092c-4.82,0.936-9.304,1.368-13.484,1.368c-37.144-0.004-49.808-34.28-54.096-56.276
				c-2.808-14.392,1.432-30.256,5.536-45.596C31.434,109.843,34.93,96.767,34.318,84.811z M90.758,226.375
				c-51.608,9.996-67.74-31.66-72.756-57.38c-2.944-15.1,1.808-31.992,6.4-48.324c3.856-13.696,7.84-27.864,7.228-40.92
				c-0.503-10.709,3.112-18.36,10.996-23.211c-6.538,6.504-10.042,16.626-9.44,28.327c0.608,11.78-2.868,24.764-6.224,37.324
				c-4.14,15.464-8.412,31.456-5.556,46.108c2.492,12.78,7.996,30.592,20.064,42.88c9.352,9.524,21.14,14.312,35.156,14.312
				c4.348,0,8.916-0.46,13.692-1.392c16.232-3.144,28.284-10.4,35.82-21.572c11.54-17.108,10.232-39.832,7.1-55.884
				c-2.86-14.648-12.832-27.88-22.48-40.676c-7.836-10.392-15.936-21.14-19.804-32.288C86.39,60.523,77.494,53.467,69.092,50.64
				c10.521,0.901,17.507,6.708,21.386,17.719c4.34,12.332,13.36,23.984,22.08,35.248c10.4,13.432,21.152,27.32,24.096,42.42
				c3.208,16.452,4.532,39.764-7.368,57.404C121.314,215.251,108.35,222.967,90.758,226.375z M135.566,218.899
				c0-1.536,5.42-3.68,14.248-3.68s14.248,2.144,14.248,3.68c0,0.183-0.082,0.375-0.232,0.57c-4.169,0.939-8.594,1.52-13.312,1.65
				c-4.949,0.146-9.658-0.234-14.124-1.112C135.859,219.628,135.566,219.248,135.566,218.899z M165.156,219.162
				c0.013-0.088,0.042-0.173,0.042-0.263c0-3.128-7.928-4.812-15.384-4.812s-15.38,1.684-15.38,4.812
				c0,0.253,0.069,0.492,0.168,0.726c-3.865-0.89-7.539-2.168-11.018-3.823c3.454-2.986,6.47-6.358,9.014-10.131
				c12.664-18.772,11.328-43.212,7.976-60.404c-3.128-16.032-14.176-30.304-24.86-44.104c-3.505-4.529-6.929-8.958-10.051-13.379
				c5.82-11.758,11.277-23.781,13.015-35.629c1.97-13.466,14.987-21.603,20.067-23.551c-9.361,12.247-13.091,26.03-12.359,41.579
				c0.036,0.728,1.168,0.732,1.132,0c-0.742-15.747,3.136-29.706,13.029-42.036c0.002,0,0.005,0,0.007,0
				c2.365,0.977,9.063,1.449,14.086,0.984c2.04,3.054,3.555,6.31,4.53,9.856c0.192,0.704,1.288,0.404,1.092-0.3
				c-0.954-3.469-2.429-6.685-4.38-9.694c1.405-0.188,2.596-0.467,3.446-0.842c4.763,6.135,7.651,13.219,8.498,20.96
				c0.08,0.716,1.212,0.724,1.132,0c-0.855-7.784-3.66-14.847-8.312-21.071c1.588,0.315,4.738,1.552,8.484,4.199
				c3.496,2.472,11.792,9.356,13.336,19.92c2.012,13.74,9.028,27.716,15.812,41.236c8.1,16.148,16.48,32.84,16.48,49.24
				C214.758,176.331,199.28,210.7,165.156,219.162z"/>
			<path d="M88.638,218.143l1.116,0.692l0.776-1.056c1.208-1.648,29.464-40.672,24.144-67.944
				c-2.176-11.156-13.48-23.528-25.452-36.628C78.086,101.023,66.57,88.423,61.55,75.959l-3.576-8.876l0.848,9.528
				c1.076,12.076-4.368,28.912-9.632,45.192c-5.368,16.6-10.436,32.276-8.472,42.348C46.034,191.419,86.902,217.063,88.638,218.143z
				 M51.882,122.675c4.48-13.86,9.092-28.116,9.808-39.816c5.956,10.948,15.832,21.752,25.432,32.256
				c11.692,12.796,22.74,24.88,24.764,35.256c4.608,23.616-18.332,58.1-22.88,64.64c-6.672-4.364-40.908-27.784-45.512-51.404
				C41.67,154.255,46.634,138.915,51.882,122.675z"/>
			<path d="M84.83,189.635c-2.424,0.468-3.992,2.908-3.496,5.444c0.44,2.252,2.352,3.824,4.468,3.824c0.272,0,0.544-0.024,0.82-0.08
				c2.424-0.468,3.992-2.908,3.496-5.444c-0.44-2.252-2.352-3.824-4.468-3.824C85.378,189.555,85.106,189.579,84.83,189.635z
				 M85.454,192.595c0.048,0.264,0,0.532-0.14,0.752c-0.136,0.212-0.34,0.356-0.58,0.4c-0.198,0.038-0.401-0.006-0.583-0.104
				c0.052-0.198,0.128-0.389,0.243-0.56c0.168-0.248,0.472-0.564,0.976-0.664c0.006-0.001,0.012-0.001,0.018-0.002
				C85.41,192.476,85.441,192.53,85.454,192.595z M87.338,193.923c0.1,0.524,0.004,1.04-0.276,1.456
				c-0.168,0.248-0.472,0.564-0.976,0.664c-0.096,0.02-0.188,0.028-0.28,0.028c-0.697,0-1.34-0.511-1.602-1.227
				c0.122,0.023,0.242,0.055,0.366,0.055c0.128,0,0.26-0.012,0.384-0.04c0.544-0.108,1.012-0.424,1.316-0.9
				c0.235-0.367,0.348-0.79,0.335-1.222C86.966,193.013,87.241,193.432,87.338,193.923z"/>
			<path d="M95.482,173.055c-0.084,0-0.168,0.004-0.252,0.008c-2.468,0.144-4.344,2.352-4.192,4.932
				c0.148,2.492,2.132,4.42,4.488,4.42c0.084,0,0.168-0.004,0.252-0.008c2.468-0.144,4.344-2.352,4.192-4.936
				C99.822,174.983,97.838,173.055,95.482,173.055z M95.454,176.079c0.032,0.548-0.356,1.02-0.864,1.048
				c-0.21,0.018-0.404-0.061-0.569-0.185c0.074-0.176,0.166-0.344,0.289-0.491c0.164-0.196,0.524-0.528,1.084-0.56h0.012
				C95.422,175.954,95.45,176.012,95.454,176.079z M96.698,179.023c-0.164,0.196-0.528,0.528-1.172,0.56
				c-0.774,0-1.432-0.606-1.612-1.43c0.199,0.066,0.406,0.11,0.624,0.11c0.04,0,0.076,0,0.116,0c1.02-0.065,1.815-0.891,1.915-1.907
				c0.324,0.318,0.542,0.771,0.573,1.287C97.174,178.159,97.014,178.647,96.698,179.023z"/>
			<path d="M93.746,146.535c0.084,0,0.168-0.004,0.252-0.008c2.468-0.144,4.344-2.352,4.192-4.936
				c-0.148-2.488-2.132-4.416-4.488-4.416c-0.084,0-0.168,0.004-0.252,0.008c-2.468,0.144-4.344,2.352-4.192,4.932
				C89.406,144.607,91.39,146.535,93.746,146.535z M93.674,140.207c0.016,0.276-0.072,0.544-0.252,0.744
				c-0.16,0.18-0.376,0.288-0.612,0.3c-0.202,0.007-0.402-0.067-0.573-0.189c0.074-0.176,0.166-0.344,0.289-0.491
				c0.164-0.196,0.524-0.528,1.084-0.56h0.016C93.643,140.076,93.67,140.137,93.674,140.207z M95.358,141.763
				c0.032,0.516-0.128,1.004-0.444,1.38c-0.164,0.196-0.528,0.528-1.172,0.56c-0.772,0-1.429-0.603-1.612-1.424
				c0.201,0.066,0.409,0.108,0.624,0.108c0.036,0,0.08-0.004,0.12-0.008c0.536-0.032,1.032-0.272,1.396-0.68
				c0.304-0.342,0.478-0.767,0.522-1.219C95.113,140.797,95.329,141.249,95.358,141.763z"/>
			<path d="M93.87,157.899c0.148,2.492,2.132,4.42,4.488,4.42c0.084,0,0.168-0.004,0.252-0.008c2.468-0.144,4.344-2.352,4.192-4.936
				c-0.144-2.488-2.128-4.416-4.488-4.416c-0.084,0-0.168,0.004-0.252,0.008C95.594,153.111,93.718,155.319,93.87,157.899z
				 M98.29,155.983c0.036,0.548-0.356,1.02-0.864,1.048c-0.211,0.02-0.407-0.06-0.573-0.186c0.074-0.176,0.165-0.343,0.289-0.49
				c0.164-0.196,0.524-0.528,1.084-0.56h0.017C98.259,155.858,98.286,155.917,98.29,155.983z M99.974,157.547
				c0.032,0.516-0.128,1.004-0.444,1.38c-0.164,0.196-0.528,0.528-1.172,0.56c-0.774,0-1.432-0.606-1.613-1.431
				c0.2,0.067,0.409,0.111,0.629,0.111c0.04,0,0.076,0,0.112,0c1.022-0.065,1.817-0.889,1.918-1.904
				C99.726,156.581,99.942,157.033,99.974,157.547z"/>
			<path d="M81.646,167.891c-0.084,0-0.168,0.004-0.252,0.008c-2.468,0.144-4.344,2.352-4.192,4.936
				c0.148,2.492,2.132,4.42,4.488,4.42c0.084,0,0.168-0.004,0.252-0.008c2.468-0.144,4.344-2.352,4.192-4.932
				C85.99,169.819,84.006,167.891,81.646,167.891z M81.622,170.919c0.032,0.544-0.356,1.016-0.864,1.044
				c-0.213,0.017-0.403-0.06-0.569-0.184c0.074-0.177,0.166-0.345,0.289-0.492c0.164-0.196,0.528-0.528,1.084-0.56h0.013
				C81.591,170.791,81.618,170.85,81.622,170.919z M82.866,173.859c-0.164,0.196-0.524,0.528-1.172,0.56
				c-0.772,0-1.428-0.602-1.611-1.423c0.2,0.066,0.407,0.107,0.619,0.107c0.04,0,0.08-0.004,0.124-0.008
				c1.018-0.061,1.813-0.885,1.914-1.9c0.322,0.318,0.538,0.769,0.57,1.284C83.342,172.995,83.182,173.483,82.866,173.859z"/>
			<path d="M75.638,159.003c0.084,0,0.168-0.004,0.252-0.008c2.468-0.144,4.344-2.352,4.192-4.936
				c-0.148-2.492-2.132-4.42-4.488-4.42c-0.084,0-0.168,0.004-0.252,0.008c-2.468,0.144-4.344,2.352-4.192,4.932
				C71.294,157.075,73.282,159.003,75.638,159.003z M75.57,152.667c0.036,0.548-0.356,1.02-0.864,1.048
				c-0.221,0.037-0.418-0.043-0.584-0.174c0.074-0.182,0.169-0.355,0.296-0.506c0.164-0.196,0.524-0.528,1.084-0.56h0.021
				C75.538,152.539,75.566,152.599,75.57,152.667z M77.25,154.227c0.032,0.516-0.128,1.004-0.444,1.38
				c-0.164,0.196-0.528,0.528-1.172,0.56c-0.773,0-1.431-0.605-1.612-1.428c0.201,0.067,0.411,0.112,0.632,0.112
				c0.036,0,0.076,0,0.112,0c1.023-0.065,1.819-0.891,1.919-1.907C77.005,153.261,77.221,153.713,77.25,154.227z"/>
			<path d="M55.51,155.927c0.084,0,0.168-0.004,0.252-0.008c2.468-0.144,4.344-2.352,4.192-4.932
				c-0.148-2.492-2.132-4.42-4.488-4.42c-0.084,0-0.168,0.004-0.252,0.008c-2.468,0.144-4.344,2.352-4.192,4.932
				C51.17,153.999,53.154,155.927,55.51,155.927z M55.442,149.599c0.016,0.276-0.072,0.544-0.252,0.744
				c-0.16,0.18-0.376,0.288-0.612,0.3c-0.215,0.01-0.406-0.063-0.574-0.188c0.074-0.177,0.166-0.345,0.29-0.492
				c0.164-0.196,0.528-0.528,1.084-0.56h0.015C55.41,149.468,55.437,149.529,55.442,149.599z M57.126,151.155
				c0.032,0.516-0.128,1.004-0.444,1.38c-0.164,0.196-0.528,0.528-1.172,0.56c-0.772,0-1.428-0.602-1.611-1.422
				c0.2,0.065,0.407,0.106,0.619,0.106c0.04,0,0.08-0.004,0.12-0.008c0.536-0.032,1.032-0.272,1.396-0.68
				c0.304-0.342,0.478-0.767,0.522-1.22C56.878,150.189,57.094,150.641,57.126,151.155z"/>
			<path d="M60.35,134.827c0.084,0,0.168-0.004,0.252-0.008c2.468-0.144,4.344-2.352,4.192-4.932
				c-0.144-2.492-2.128-4.42-4.488-4.42c-0.084,0-0.168,0.004-0.252,0.008c-2.468,0.144-4.344,2.352-4.192,4.932
				C56.01,132.899,57.994,134.827,60.35,134.827z M60.282,128.495c0.036,0.544-0.356,1.016-0.864,1.044
				c-0.202,0.024-0.401-0.059-0.572-0.188c0.074-0.175,0.165-0.342,0.288-0.488c0.164-0.196,0.528-0.528,1.084-0.56h0.016
				C60.25,128.367,60.278,128.427,60.282,128.495z M61.966,130.055c0.032,0.516-0.128,1.004-0.444,1.38
				c-0.164,0.196-0.528,0.528-1.172,0.56c-0.772,0-1.428-0.602-1.611-1.423c0.2,0.066,0.407,0.107,0.619,0.107
				c0.044,0,0.084-0.004,0.12-0.004c1.023-0.061,1.819-0.887,1.919-1.904C61.718,129.089,61.934,129.541,61.966,130.055z"/>
			<path d="M68.774,137.907c0.148,2.492,2.132,4.42,4.488,4.42c0.084,0,0.168-0.004,0.252-0.008
				c2.468-0.144,4.344-2.352,4.192-4.932c-0.148-2.492-2.132-4.42-4.488-4.42c-0.084,0-0.168,0.004-0.252,0.008
				C70.498,133.119,68.622,135.327,68.774,137.907z M73.19,135.991c0.032,0.548-0.356,1.02-0.864,1.048
				c-0.222,0.03-0.414-0.048-0.576-0.169c0.074-0.182,0.169-0.355,0.296-0.507c0.164-0.196,0.524-0.528,1.084-0.56h0.012
				C73.158,135.866,73.186,135.924,73.19,135.991z M74.878,137.555c0.032,0.516-0.128,1.004-0.444,1.38
				c-0.164,0.196-0.524,0.528-1.172,0.56c-0.774,0-1.432-0.606-1.612-1.43c0.199,0.066,0.406,0.11,0.624,0.11
				c0.04,0,0.076,0,0.116-0.004c1.019-0.061,1.815-0.887,1.915-1.903C74.628,136.586,74.846,137.039,74.878,137.555z"/>
			<path d="M67.406,115.295c0.084,0,0.168-0.004,0.252-0.008c2.468-0.144,4.344-2.352,4.192-4.932
				c-0.148-2.5-2.132-4.424-4.488-4.424c-0.084,0-0.168,0.004-0.252,0.008c-2.468,0.144-4.344,2.352-4.192,4.936
				C63.066,113.367,65.05,115.295,67.406,115.295z M67.334,108.955c0.036,0.548-0.356,1.02-0.86,1.048
				c-0.218,0.018-0.412-0.061-0.576-0.184c0.074-0.179,0.167-0.349,0.292-0.496c0.164-0.196,0.528-0.528,1.084-0.56h0.013
				C67.302,108.827,67.33,108.888,67.334,108.955z M69.022,110.515c0.032,0.516-0.128,1.004-0.444,1.38
				c-0.164,0.196-0.528,0.528-1.172,0.56c-0.773,0-1.43-0.604-1.612-1.427c0.2,0.067,0.409,0.111,0.628,0.111
				c0.036,0,0.076,0,0.116,0c1.02-0.065,1.815-0.891,1.915-1.907C68.774,109.549,68.99,110.001,69.022,110.515z"/>
			<path d="M80.602,128.295c0.456,0,0.916-0.072,1.368-0.224c2.34-0.788,3.568-3.412,2.74-5.86
				c-0.668-1.976-2.468-3.236-4.372-3.236c-0.456,0-0.916,0.072-1.368,0.224c-2.34,0.788-3.568,3.412-2.74,5.86
				C76.898,127.035,78.702,128.295,80.602,128.295z M81.946,124.599c-0.132,0.268-0.392,0.62-0.876,0.784
				c-0.152,0.052-0.308,0.076-0.468,0.076c-0.732,0-1.424-0.54-1.688-1.308c-0.161-0.473-0.14-0.964,0.047-1.393
				c0.202,0.39,0.51,0.71,0.901,0.913c0.3,0.16,0.624,0.24,0.952,0.24c0.216,0,0.432-0.036,0.64-0.108
				c0.242-0.079,0.459-0.205,0.649-0.365C82.172,123.841,82.123,124.245,81.946,124.599z M81.539,122.367
				c-0.11,0.167-0.256,0.3-0.445,0.364c-0.232,0.08-0.48,0.056-0.7-0.064c-0.236-0.12-0.412-0.328-0.496-0.584
				c-0.022-0.065-0.018-0.13-0.028-0.196c0.156-0.052,0.312-0.076,0.468-0.076C80.788,121.811,81.209,122.031,81.539,122.367z"/>
			<path d="M72.318,179.067c-0.456,0-0.916,0.072-1.368,0.224c-2.34,0.788-3.568,3.412-2.74,5.86
				c0.668,1.976,2.472,3.236,4.372,3.236c0.456,0,0.916-0.072,1.368-0.224c2.34-0.788,3.568-3.412,2.74-5.86
				C76.022,180.327,74.218,179.067,72.318,179.067z M71.85,181.979c0.152-0.052,0.308-0.076,0.468-0.076
				c0.449,0,0.87,0.219,1.199,0.554c-0.108,0.168-0.257,0.302-0.443,0.366c-0.488,0.156-1.028-0.128-1.2-0.648
				c-0.022-0.064-0.018-0.129-0.027-0.195C71.848,181.98,71.849,181.979,71.85,181.979z M73.926,184.691
				c-0.132,0.268-0.392,0.62-0.876,0.784c-0.152,0.052-0.308,0.076-0.468,0.076c-0.732,0-1.424-0.54-1.688-1.308
				c-0.164-0.481-0.141-0.981,0.056-1.415c0.371,0.717,1.08,1.175,1.848,1.175c0.212,0,0.424-0.032,0.636-0.108
				c0.24-0.081,0.458-0.208,0.648-0.367C74.152,183.931,74.103,184.336,73.926,184.691z"/>
			<path d="M61.298,163.319c-0.456,0-0.916,0.072-1.368,0.224c-2.34,0.788-3.568,3.412-2.74,5.86
				c0.668,1.976,2.472,3.236,4.372,3.236c0.456,0,0.916-0.072,1.368-0.224c2.34-0.788,3.568-3.412,2.74-5.86
				C64.998,164.579,63.198,163.319,61.298,163.319z M60.83,166.231c0.152-0.052,0.308-0.076,0.468-0.076
				c0.446,0,0.864,0.216,1.192,0.546c-0.106,0.166-0.25,0.307-0.444,0.374c-0.484,0.16-1.02-0.128-1.196-0.648
				c-0.021-0.064-0.017-0.129-0.026-0.193C60.826,166.233,60.828,166.232,60.83,166.231z M62.906,168.943
				c-0.132,0.268-0.392,0.62-0.876,0.784c-0.152,0.052-0.308,0.076-0.468,0.076c-0.732,0-1.424-0.54-1.688-1.308
				c-0.164-0.48-0.14-0.981,0.055-1.415c0.37,0.717,1.076,1.175,1.845,1.175c0.216,0,0.428-0.032,0.64-0.108
				c0.245-0.082,0.46-0.213,0.647-0.371C63.133,168.18,63.084,168.587,62.906,168.943z"/>
		</g>
	</g>
</g>
</svg>