<svg width="48" height="48" viewBox="0 0 32 32" xmlns="http://www.w3.org/2000/svg"><rect x="0" y="0" width="32" height="32" rx="8" fill="none"/><svg xmlns="http://www.w3.org/2000/svg" viewBox="0 0 32 32" fill="#000000" x="0" y="0" width="32" height="32"><path fill="#000000" d="M16 8h14v2H16zm0 14h14v2H16zm-6-8H4a2.002 2.002 0 0 1-2-2V6a2.002 2.002 0 0 1 2-2h6a2.002 2.002 0 0 1 2 2v6a2.002 2.002 0 0 1-2 2zM4 6v6h6.001L10 6zm6 22H4a2.002 2.002 0 0 1-2-2v-6a2.002 2.002 0 0 1 2-2h6a2.002 2.002 0 0 1 2 2v6a2.002 2.002 0 0 1-2 2zm-6-8v6h6.001L10 20z"/></svg></svg>