<svg width="48" height="48" viewBox="0 0 32 32" xmlns="http://www.w3.org/2000/svg"><rect x="0" y="0" width="32" height="32" rx="8" fill="none"/><svg xmlns="http://www.w3.org/2000/svg" viewBox="0 0 32 32" fill="#000000" x="0" y="0" width="32" height="32"><path fill="#000000" d="M17 17h5.142a4 4 0 1 0 0-2H17V7h5.142a4 4 0 1 0 0-2H17a2.002 2.002 0 0 0-2 2v8H9.858a4 4 0 1 0 0 2H15v8a2.002 2.002 0 0 0 2 2h5.142a4 4 0 1 0 0-2H17Zm9-3a2 2 0 1 1-2 2a2.002 2.002 0 0 1 2-2Zm0-10a2 2 0 1 1-2 2a2.002 2.002 0 0 1 2-2ZM6 18a2 2 0 1 1 2-2a2.002 2.002 0 0 1-2 2Zm20 6a2 2 0 1 1-2 2a2.002 2.002 0 0 1 2-2Z"/></svg></svg>