<?xml version="1.0" encoding="UTF-8" standalone="no"?>
<svg
   xmlns:dc="http://purl.org/dc/elements/1.1/"
   xmlns:cc="http://creativecommons.org/ns#"
   xmlns:rdf="http://www.w3.org/1999/02/22-rdf-syntax-ns#"
   xmlns:svg="http://www.w3.org/2000/svg"
   xmlns="http://www.w3.org/2000/svg"
   xmlns:sodipodi="http://sodipodi.sourceforge.net/DTD/sodipodi-0.dtd"
   xmlns:inkscape="http://www.inkscape.org/namespaces/inkscape"
   height="24"
   viewBox="0 -960 960 960"
   width="24"
   version="1.1"
   id="svg4"
   sodipodi:docname="DeckDescription.svg"
   inkscape:version="1.0.2 (e86c870879, 2021-01-15)">
  <metadata
     id="metadata10">
    <rdf:RDF>
      <cc:Work
         rdf:about="">
        <dc:format>image/svg+xml</dc:format>
        <dc:type
           rdf:resource="http://purl.org/dc/dcmitype/StillImage" />
      </cc:Work>
    </rdf:RDF>
  </metadata>
  <defs
     id="defs8" />
  <sodipodi:namedview
     pagecolor="#ffffff"
     bordercolor="#666666"
     borderopacity="1"
     objecttolerance="10"
     gridtolerance="10"
     guidetolerance="10"
     inkscape:pageopacity="0"
     inkscape:pageshadow="2"
     inkscape:window-width="2560"
     inkscape:window-height="1403"
     id="namedview6"
     showgrid="false"
     inkscape:zoom="32.958333"
     inkscape:cx="12"
     inkscape:cy="13.213654"
     inkscape:window-x="0"
     inkscape:window-y="0"
     inkscape:window-maximized="1"
     inkscape:current-layer="svg4"
     inkscape:document-rotation="0" />
  <path
     d="m 682.45575,-121.08091 c -76.01233,0 -104.57859,-4.73757 -120.24526,-20.40424 -15.66666,-15.66667 -24.19519,-36.2875 -24.29172,-58.28729 l -2.46523,-561.86314 c 0,0 -5.3099,-40.11975 28.43046,-64.09483 23.7927,-16.90651 48.2105,-15.3505 118.57175,-15.3505 h 160 c 22,0 40.83334,7.83333 56.5,23.5 15.66667,15.66667 23.5,34.5 23.5,56.5 v 560 c 0,22 -7.83333,40.83333 -23.5,56.5 -15.66666,15.66667 -34.5,23.5 -56.5,23.5 z m -68.04519,-640 2.93931,561.9153 225.10588,-1.9153 v -560 z m 228.04519,0 H 614.41056 Z"
     id="path2"
     sodipodi:nodetypes="ssscssssssssscccccccc" />
  <path
     d="m 183.16873,-117.6734 c -76.01233,0 -104.578587,-4.73757 -120.245257,-20.40424 -15.66666,-15.66667 -24.296564,-36.28729 -24.29172,-58.28729 l 0.123268,-559.82459 c 0.0082,-37.25683 17.663902,-55.81873 26.311306,-63.67762 16.396375,-14.90127 47.589443,-17.80626 118.102403,-17.80626 h 159.99996 c 22,0 40.8334,7.83333 56.5,23.5 15.6667,15.66667 23.5,34.5 23.5,56.5 v 560 c 0,22 -7.8333,40.83333 -23.5,56.5 -15.6666,15.66667 -34.5,23.5 -56.5,23.5 z m -68.04519,-640 2.93931,561.9153 225.10584,-1.9153 v -560 z m 228.04515,0 H 115.12354 Z"
     id="path2-3"
     sodipodi:nodetypes="ssssssssssssscccccccc" />
  <rect
     style="fill:#000000;stroke:#000000;stroke-width:0.795009"
     id="rect426-4-6"
     width="199.39256"
     height="120.72987"
     x="629.89917"
     y="-715.21643" />
  <rect
     style="fill:#000000;stroke:#000000;stroke-width:0.800641"
     id="rect426-4-7"
     width="199.38693"
     height="122.4499"
     x="630.39032"
     y="-558.41516" />
  <rect
     style="fill:#000000;stroke:#000000;stroke-width:0.800641"
     id="rect426-4-7-3"
     width="199.38693"
     height="122.4499"
     x="130.75851"
     y="-710.05554" />
</svg>
