<?xml version="1.0" encoding="UTF-8" standalone="no"?>
<svg
   xmlns:dc="http://purl.org/dc/elements/1.1/"
   xmlns:cc="http://creativecommons.org/ns#"
   xmlns:rdf="http://www.w3.org/1999/02/22-rdf-syntax-ns#"
   xmlns:svg="http://www.w3.org/2000/svg"
   xmlns="http://www.w3.org/2000/svg"
   xmlns:sodipodi="http://sodipodi.sourceforge.net/DTD/sodipodi-0.dtd"
   xmlns:inkscape="http://www.inkscape.org/namespaces/inkscape"
   height="24"
   viewBox="0 -960 960 960"
   width="24"
   version="1.1"
   id="svg4"
   sodipodi:docname="splitscreen_vertical_add_FILL0_wght400_GRAD0_opsz24.svg"
   inkscape:version="1.0.2 (e86c870879, 2021-01-15)">
  <metadata
     id="metadata10">
    <rdf:RDF>
      <cc:Work
         rdf:about="">
        <dc:format>image/svg+xml</dc:format>
        <dc:type
           rdf:resource="http://purl.org/dc/dcmitype/StillImage" />
      </cc:Work>
    </rdf:RDF>
  </metadata>
  <defs
     id="defs8" />
  <sodipodi:namedview
     pagecolor="#ffffff"
     bordercolor="#666666"
     borderopacity="1"
     objecttolerance="10"
     gridtolerance="10"
     guidetolerance="10"
     inkscape:pageopacity="0"
     inkscape:pageshadow="2"
     inkscape:window-width="2560"
     inkscape:window-height="1403"
     id="namedview6"
     showgrid="false"
     inkscape:zoom="32.958333"
     inkscape:cx="12"
     inkscape:cy="12"
     inkscape:window-x="0"
     inkscape:window-y="0"
     inkscape:window-maximized="1"
     inkscape:current-layer="svg4" />
  <path
     d="m 760,-760 h -161 5 -4 z m -240,0 c 0,-22 7.83333,-40.83333 23.5,-56.5 15.66667,-15.66667 34.5,-23.5 56.5,-23.5 h 160 c 22,0 40.83333,7.83333 56.5,23.5 15.66667,15.66667 23.5,34.5 23.5,56.5 v 400 H 760 V -760 H 600 v 640 c -22,0 -40.83333,-7.83333 -56.5,-23.5 C 527.83333,-159.16667 520,-178 520,-200 Z m -320,640 c -22,0 -40.83333,-7.83333 -56.5,-23.5 C 127.83333,-159.16667 120,-178 120,-200 v -560 c 0,-22 7.83333,-40.83333 23.5,-56.5 15.66667,-15.66667 34.5,-23.5 56.5,-23.5 h 160 c 22,0 40.83333,7.83333 56.5,23.5 15.66667,15.66667 23.5,34.5 23.5,56.5 v 560 c 0,22 -7.83333,40.83333 -23.5,56.5 C 400.83333,-127.83333 382,-120 360,-120 Z M 360,-760 H 200 v 560 h 160 z m 0,0 H 200 Z"
     id="path2"
     sodipodi:nodetypes="cccccsssssscccccsssssssssssssssscccccccc" />
  <path
     d="m 646.42225,-61.697215 v -93.515045 l 168.30819,-167.26269 c 4.56945,-4.56173 9.64666,-7.85628 15.23152,-9.88372 5.58487,-2.02743 11.16981,-3.04114 16.75466,-3.04114 6.0926,0 11.93138,1.14043 17.51625,3.42129 5.58485,2.28086 10.66205,5.70213 15.2315,10.26385 l 28.1783,28.13054 c 4.06171,4.56171 7.23495,9.63027 9.51969,15.2057 2.28473,5.57543 3.42708,11.15085 3.42708,16.72626 0,5.57544 -1.0154,11.27758 -3.04629,17.10643 -2.03089,5.82885 -5.33103,11.02411 -9.90048,15.58584 L 740.09605,-61.697215 Z m 228.47267,-199.954955 -28.1783,-28.13053 z m -182.77813,154.33786 h 28.93986 l 92.15065,-92.75477 -13.70836,-14.44541 -14.46994,-13.68513 -92.91221,91.99448 z m 107.38215,-107.20018 -14.46994,-13.68513 28.1783,28.13054 z"
     id="path2-7"
     sodipodi:nodetypes="cccsssscsssscccccccccccccccc"
     style="stroke-width:0.760931" />
</svg>
