<?xml version="1.0" encoding="UTF-8" standalone="no"?>
<svg
   xmlns:dc="http://purl.org/dc/elements/1.1/"
   xmlns:cc="http://creativecommons.org/ns#"
   xmlns:rdf="http://www.w3.org/1999/02/22-rdf-syntax-ns#"
   xmlns:svg="http://www.w3.org/2000/svg"
   xmlns="http://www.w3.org/2000/svg"
   xmlns:sodipodi="http://sodipodi.sourceforge.net/DTD/sodipodi-0.dtd"
   xmlns:inkscape="http://www.inkscape.org/namespaces/inkscape"
   height="24"
   viewBox="0 -960 960 960"
   width="24"
   version="1.1"
   id="svg4"
   sodipodi:docname="EditCardTool.svg"
   inkscape:version="1.0.2 (e86c870879, 2021-01-15)">
  <metadata
     id="metadata10">
    <rdf:RDF>
      <cc:Work
         rdf:about="">
        <dc:format>image/svg+xml</dc:format>
        <dc:type
           rdf:resource="http://purl.org/dc/dcmitype/StillImage" />
      </cc:Work>
    </rdf:RDF>
  </metadata>
  <defs
     id="defs8" />
  <sodipodi:namedview
     pagecolor="#ffffff"
     bordercolor="#666666"
     borderopacity="1"
     objecttolerance="10"
     gridtolerance="10"
     guidetolerance="10"
     inkscape:pageopacity="0"
     inkscape:pageshadow="2"
     inkscape:window-width="2560"
     inkscape:window-height="1403"
     id="namedview6"
     showgrid="false"
     inkscape:zoom="32.958333"
     inkscape:cx="24.733881"
     inkscape:cy="12"
     inkscape:window-x="0"
     inkscape:window-y="0"
     inkscape:window-maximized="1"
     inkscape:current-layer="svg4" />
  <path
     d="M 560,-280 H 120 v -400 h 720 v 120 h -80 v -40 H 200 v 240 h 360 z m -360,-80 v -240 z"
     id="path2"
     sodipodi:nodetypes="cccccccccccccc" />
  <path
     d="m 590.49936,-278.04993 v -91.34292 l 167.76396,-163.37758 c 4.55468,-4.45576 9.61546,-7.6738 15.18226,-9.65413 5.56681,-1.98034 11.13369,-2.97051 16.70049,-2.97051 6.0729,0 11.89279,1.11394 17.4596,3.34182 5.5668,2.22788 10.62758,5.56969 15.18225,10.02544 l 28.08718,27.47714 c 4.04858,4.45575 7.21157,9.40659 9.48892,14.85251 2.27733,5.44592 3.416,10.89184 3.416,16.33775 0,5.44593 -1.01212,11.01562 -3.03645,16.70908 -2.02432,5.69347 -5.31379,10.76806 -9.86847,15.22382 l -167.00484,163.37758 z m 227.73389,-195.31048 -28.08718,-27.47713 z m -182.18711,150.75296 h 28.84629 l 91.85267,-90.6003 -13.66404,-14.10988 -14.42314,-13.36726 -92.61178,89.85767 z m 107.03492,-104.71018 -14.42314,-13.36726 28.08718,27.47714 z"
     id="path2-7"
     sodipodi:nodetypes="cccsssscsssscccccccccccccccc"
     style="stroke-width:0.750824" />
</svg>
