<svg id="Layer_1" data-name="Layer 1" xmlns="http://www.w3.org/2000/svg" viewBox="0 0 92.7 92.7">
  <title>icon</title>
  <g>
    <circle cx="46.3" cy="46.3" r="45.3" style="fill: #fff"/>
    <path d="M51.9,44.2,88.7,30A45.4,45.4,0,0,0,46.3,1V40.3A6,6,0,0,1,51.9,44.2Z" style="fill: #84cba2"/>
    <path d="M51.9,44.2a6,6,0,1,0-11.1,4.6,6,6,0,0,0,7.9,3.3,5.9,5.9,0,0,0,3.7-5.8A5.4,5.4,0,0,0,51.9,44.2Z" style="fill: #f16262"/>
    <path d="M46.3,40.3V1A45.4,45.4,0,0,1,88.7,30L51.9,44.2" style="fill: #fff;stroke: #002b3c;stroke-linecap: round;stroke-linejoin: round;stroke-width: 1.99954468286946px"/>
    <circle cx="46.3" cy="46.3" r="6" style="fill: #48c1c2;stroke: #002b3c;stroke-linecap: round;stroke-linejoin: round;stroke-width: 1.99954468286946px"/>
    <path d="M70.5,48.2A24.2,24.2,0,1,1,34.3,25.3M91.5,42.6c.1,1.3.2,2.5.2,3.7A45.4,45.4,0,1,1,34.3,2.7" style="fill: none;stroke: #002b3c;stroke-linecap: round;stroke-linejoin: round;stroke-width: 1.99954468286946px"/>
  </g>
</svg>
