<?xml version="1.0" encoding="UTF-8" standalone="no"?>
<svg
   height="24px"
   viewBox="0 0 24 24"
   width="24px"
   fill="#000000"
   version="1.1"
   id="svg6"
   sodipodi:docname="BrightenTool.svg"
   inkscape:version="1.2.2 (732a01da63, 2022-12-09)"
   xmlns:inkscape="http://www.inkscape.org/namespaces/inkscape"
   xmlns:sodipodi="http://sodipodi.sourceforge.net/DTD/sodipodi-0.dtd"
   xmlns="http://www.w3.org/2000/svg"
   xmlns:svg="http://www.w3.org/2000/svg">
  <defs
     id="defs10" />
  <sodipodi:namedview
     id="namedview8"
     pagecolor="#ffffff"
     bordercolor="#000000"
     borderopacity="0.25"
     inkscape:showpageshadow="2"
     inkscape:pageopacity="0.0"
     inkscape:pagecheckerboard="0"
     inkscape:deskcolor="#d1d1d1"
     showgrid="false"
     inkscape:zoom="34.541667"
     inkscape:cx="8.7864897"
     inkscape:cy="12.028951"
     inkscape:window-width="1920"
     inkscape:window-height="1010"
     inkscape:window-x="1273"
     inkscape:window-y="-6"
     inkscape:window-maximized="1"
     inkscape:current-layer="svg6" />
  <path
     d="M 24,0 H 0 v 24 h 24 z"
     fill="none"
     id="path2" />
  <path
     d="M 12,2 C 17.52,2 22,6.48 22,12 22,17.52 17.52,22 12,22 6.48,22 2,17.52 2,12 2,6.48 6.48,2 12,2 Z m 1,17.93 C 16.94,19.44 20,16.08 20,12 20,7.92 16.95,4.56 13,4.07 Z M 11,4.07 C 9.97,4.2 9,4.52 8.13,5 H 11 Z M 11,7 H 5.76 C 5.51,7.31 5.28,7.65 5.08,8 H 11 Z m 0,3 H 4.26 C 4.18,10.33 4.11,10.66 4.07,11 H 11 Z m 0,9.93 V 19 H 8.13 C 9,19.48 9.97,19.8 11,19.93 Z M 5.76,17 H 11 V 16 H 5.08 c 0.2,0.35 0.43,0.69 0.68,1 z M 4.26,14 H 11 V 13 H 4.07 c 0.04,0.34 0.11,0.67 0.19,1 z"
     id="path4" />
</svg>
