<?xml version="1.0" encoding="UTF-8"?>
<svg xmlns="http://www.w3.org/2000/svg" xmlns:xlink="http://www.w3.org/1999/xlink" width="16px" height="16px" viewBox="0 0 16 16" version="1.1">
<g id="surface1">
<path style=" stroke:none;fill-rule:nonzero;fill:rgb(25.882354%,25.882354%,25.882354%);fill-opacity:1;" d="M 5.734375 10.800781 L 10.246094 10.800781 L 11.160156 13.199219 L 12.832031 13.199219 L 8.742188 2.800781 L 7.257812 2.800781 L 3.167969 13.199219 L 4.839844 13.199219 Z M 8 4.785156 L 9.65625 9.199219 L 6.34375 9.199219 Z M 14.398438 0 L 1.601562 0 C 0.71875 0 0 0.71875 0 1.601562 L 0 14.398438 C 0 15.28125 0.71875 16 1.601562 16 L 14.398438 16 C 15.28125 16 16 15.28125 16 14.398438 L 16 1.601562 C 16 0.71875 15.28125 0 14.398438 0 Z M 14.398438 14.398438 L 1.601562 14.398438 L 1.601562 1.601562 L 14.398438 1.601562 Z M 14.398438 14.398438 "/>
</g>
</svg>
