<svg xmlns="http://www.w3.org/2000/svg" width="1em" height="1em" viewBox="0 0 15 15">
	<path fill="currentColor" fill-rule="evenodd" d="M4.671 3.146a.5.5 0 0 0 0 .707l2.475 2.475a.5.5 0 0 0 .707 0l2.475-2.475a.5.5 0 0 0 0-.707L7.853.671a.5.5 0 0 0-.707 0zM7.5 5.268L5.732 3.5L7.5 1.732L9.267 3.5zm1.17 1.878a.5.5 0 0 0 0 .707l2.475 2.475a.5.5 0 0 0 .707 0l2.475-2.475a.5.5 0 0 0 0-.707l-2.475-2.475a.5.5 0 0 0-.707 0zm2.83 2.122L9.732 7.5L11.5 5.732L13.268 7.5zm-6.83 2.585a.5.5 0 0 1 0-.707l2.475-2.475a.5.5 0 0 1 .707 0l2.475 2.475a.5.5 0 0 1 0 .707l-2.475 2.475a.5.5 0 0 1-.707 0zm1.061-.353L7.5 13.268L9.267 11.5L7.5 9.732zM.672 7.146a.5.5 0 0 0 0 .708l2.474 2.475a.5.5 0 0 0 .707 0l2.475-2.475a.5.5 0 0 0 0-.708L3.853 4.672a.5.5 0 0 0-.707 0zM3.5 9.268L1.732 7.5L3.5 5.732L5.267 7.5z" clip-rule="evenodd" />
</svg>