<svg id="Layer_1" data-name="Layer 1" xmlns="http://www.w3.org/2000/svg" viewBox="0 0 92.7 92.7">
  <title>icon</title>
  <g>
    <rect x="16.1" y="16.1" width="60.5" height="60.47" rx="3" style="fill: #7590c9;stroke: #002b3c;stroke-linecap: round;stroke-linejoin: round;stroke-width: 2px"/>
    <path d="M46.4,16.1V1M31.2,16.1V1M61.5,16.1V1M31.2,91.7V76.6M61.5,91.7V76.6M46.4,91.7V76.6M76.6,46.4H91.7M76.6,31.2H91.7M76.6,61.5H91.7M1,31.2H16.1M1,61.5H16.1M1,46.4H16.1" style="fill: none;stroke: #002b3c;stroke-linecap: round;stroke-linejoin: round;stroke-width: 2px"/>
    <rect x="28.2" y="28.2" width="36.3" height="36.28" rx="3" style="fill: #fff;stroke: #002b3c;stroke-linecap: round;stroke-linejoin: round;stroke-width: 2px"/>
  </g>
  <g>
    <circle cx="46.5" cy="46.4" r="5" style="fill: none;stroke: #002b3c;stroke-linecap: round;stroke-linejoin: round;stroke-width: 2px"/>
    <path d="M56.7,47.9a16.1,16.1,0,0,0,0-3.1L59,42.5a.7.7,0,0,0,.1-.9l-2.2-3.9a.9.9,0,0,0-.9-.4l-3.2.9a13.5,13.5,0,0,0-2.6-1.5l-.8-3.2a1,1,0,0,0-.8-.6H44.1a1,1,0,0,0-.8.6l-.8,3.3a9.7,9.7,0,0,0-2.4,1.5l-3.3-1a1,1,0,0,0-1,.4l-2.2,3.9a.7.7,0,0,0,.1.9L36.3,45a12.2,12.2,0,0,0,0,2.7l-2.6,2.5a.9.9,0,0,0-.1,1L35.8,55a1,1,0,0,0,1,.4l3.3-1a9.7,9.7,0,0,0,2.4,1.5l.8,3.3a1,1,0,0,0,.8.6h4.5a1,1,0,0,0,.8-.6l.8-3.2a13.5,13.5,0,0,0,2.6-1.5l3.2.9a.9.9,0,0,0,.9-.4l2.2-3.8a.9.9,0,0,0-.1-1Z" style="fill: none;stroke: #002b3c;stroke-linecap: round;stroke-linejoin: round;stroke-width: 2px"/>
  </g>
</svg>
