<svg id="Layer_1" data-name="Layer 1" xmlns="http://www.w3.org/2000/svg" viewBox="0 0 68.5 92.7">
  <title>icon</title>
  <g>
    <path d="M1,1V91.7H67.5V25.2L43.3,1Z" style="fill: none;stroke: #002b3c;stroke-linecap: round;stroke-linejoin: round;stroke-width: 2px"/>
    <path d="M43.3,1V25.2H67.5Z" style="fill: #48c1c2;stroke: #002b3c;stroke-linecap: round;stroke-linejoin: round;stroke-width: 2px"/>
    <g>
      <path d="M19.6,35h3.8V53.9H19.6Z" style="fill: #002b3c"/>
      <path d="M47.2,34.7a8,8,0,0,1,6.1,2.8,10,10,0,0,1,2.4,6.9,10.1,10.1,0,0,1-2.4,7A8,8,0,0,1,47,54.1a8.3,8.3,0,0,1-6.3-2.6,10.1,10.1,0,0,1-2.4-7,10.6,10.6,0,0,1,2.5-7.1A8.1,8.1,0,0,1,47.2,34.7Zm0,2.6H47a4.2,4.2,0,0,0-3.5,1.9,8.9,8.9,0,0,0-1.3,5.2,9,9,0,0,0,1.3,5.3A3.9,3.9,0,0,0,47,51.6a4,4,0,0,0,3.5-1.9,8.9,8.9,0,0,0,1.3-5.2,8.9,8.9,0,0,0-1.3-5.2A3.8,3.8,0,0,0,47.2,37.3Z" style="fill: #002b3c"/>
      <path d="M21.6,63.1a8.1,8.1,0,0,1,6.2,2.7,10.3,10.3,0,0,1,2.4,7,10.3,10.3,0,0,1-2.4,7,8.2,8.2,0,0,1-6.3,2.7,8,8,0,0,1-6.3-2.7,10.1,10.1,0,0,1-2.4-7,9.7,9.7,0,0,1,2.5-7A8,8,0,0,1,21.6,63.1Zm.1,2.6h-.2A3.9,3.9,0,0,0,18,67.6a8.9,8.9,0,0,0-1.3,5.2A9.5,9.5,0,0,0,17.9,78,4.2,4.2,0,0,0,25,78a9.4,9.4,0,0,0,1.3-5.1A9.3,9.3,0,0,0,25,67.6,3.7,3.7,0,0,0,21.7,65.7Z" style="fill: #002b3c"/>
      <path d="M45.1,63.3H49v19H45.1Z" style="fill: #002b3c"/>
    </g>
  </g>
</svg>
