<svg width="24" height="24" viewBox="0 0 24 24" fill="none" xmlns="http://www.w3.org/2000/svg">
<path d="M18 4.8H24V7.2H21.6V22.8C21.6 23.1183 21.4736 23.4235 21.2485 23.6485C21.0235 23.8736 20.7183 24 20.4 24H3.6C3.28174 24 2.97652 23.8736 2.75147 23.6485C2.52643 23.4235 2.4 23.1183 2.4 22.8V7.2H0V4.8H6V1.2C6 0.88174 6.12643 0.576515 6.35147 0.351472C6.57652 0.126428 6.88174 0 7.2 0H16.8C17.1183 0 17.4235 0.126428 17.6485 0.351472C17.8736 0.576515 18 0.88174 18 1.2V4.8ZM8.4 10.8V18H10.8V10.8H8.4ZM13.2 10.8V18H15.6V10.8H13.2ZM8.4 2.4V4.8H15.6V2.4H8.4Z" fill="#002B3C"/>
</svg>
